<?xml version="1.0" encoding="UTF-8"?>
<svg xmlns="http://www.w3.org/2000/svg" xmlns:xlink="http://www.w3.org/1999/xlink" width="375pt" height="374.999991pt" viewBox="0 0 375 374.999991" version="1.2">
<g id="surface1">
<path style=" stroke:none;fill-rule:nonzero;fill:rgb(86.669922%,73.728943%,52.159119%);fill-opacity:1;" d="M 210.898438 102.480469 C 210.738281 102.1875 210.382812 102.039062 210.0625 102.113281 C 209.609375 102.210938 209.082031 102.222656 208.527344 102.148438 C 208.246094 102.125 207.941406 102.246094 207.78125 102.492188 C 207.609375 102.738281 207.597656 103.058594 207.742188 103.316406 C 207.941406 103.660156 208.085938 103.992188 208.320312 104.496094 C 208.429688 104.738281 208.699219 104.863281 208.957031 104.898438 C 208.996094 104.898438 209.019531 104.914062 209.058594 104.914062 C 209.289062 104.914062 209.546875 104.777344 209.707031 104.59375 C 210.089844 104.199219 210.457031 103.808594 210.8125 103.402344 C 211.046875 103.144531 211.070312 102.777344 210.898438 102.480469 "/>
<path style=" stroke:none;fill-rule:nonzero;fill:rgb(86.669922%,73.728943%,52.159119%);fill-opacity:1;" d="M 265.246094 41.734375 C 264.277344 41.722656 263.257812 41.5 262.113281 41.09375 C 261.820312 40.984375 261.488281 41.070312 261.269531 41.292969 C 261.058594 41.523438 260.996094 41.867188 261.132812 42.152344 C 261.636719 43.292969 262.042969 44.324219 262.359375 45.320312 C 262.445312 45.601562 262.679688 45.796875 262.949219 45.859375 C 263.011719 45.871094 263.058594 45.871094 263.109375 45.871094 C 263.34375 45.871094 263.5625 45.773438 263.710938 45.601562 L 265.835938 43.035156 C 266.03125 42.800781 266.066406 42.484375 265.945312 42.199219 C 265.824219 41.917969 265.550781 41.746094 265.246094 41.734375 "/>
<path style=" stroke:none;fill-rule:nonzero;fill:rgb(86.669922%,73.728943%,52.159119%);fill-opacity:1;" d="M 197.257812 204.5 C 189.339844 200.140625 182.613281 192.871094 176.105469 185.835938 C 172.816406 182.285156 169.710938 178.921875 166.445312 175.902344 C 166.25 175.703125 165.953125 175.644531 165.683594 175.714844 C 165.425781 175.800781 165.21875 176.011719 165.144531 176.28125 C 161.425781 190.820312 154.304688 202.941406 143.980469 212.296875 C 139.90625 215.992188 135.78125 219.652344 131.667969 223.300781 C 119.710938 233.886719 107.359375 244.828125 96.25 256.847656 C 80.597656 273.769531 66.015625 291.613281 51.207031 309.933594 L 46.566406 315.691406 C 41.054688 322.554688 35.359375 329.652344 29.566406 336.457031 C 28.867188 337.265625 28.066406 338.140625 27.234375 339.058594 C 22.394531 344.328125 15.765625 351.5625 19.523438 358.769531 C 19.558594 358.84375 19.609375 358.917969 19.683594 358.976562 C 21.207031 360.414062 22.703125 361.960938 24.140625 363.460938 C 27.945312 367.425781 31.898438 371.539062 37.273438 373.972656 C 38.121094 374.203125 38.957031 374.316406 39.78125 374.316406 C 46.542969 374.316406 52.546875 367.03125 57.0625 361.554688 C 58.21875 360.15625 59.3125 358.832031 60.28125 357.785156 C 68.125 349.363281 76.128906 340.9375 83.863281 332.796875 C 99.566406 316.230469 115.792969 299.101562 130.328125 280.964844 C 137.4375 272.0625 145.636719 261.464844 152.671875 250.339844 C 153.714844 248.667969 154.757812 246.960938 155.800781 245.242188 C 159.4375 239.289062 163.179688 233.125 167.625 228.027344 C 176.636719 217.675781 186.027344 210.652344 197.1875 205.910156 C 197.46875 205.800781 197.652344 205.53125 197.664062 205.238281 C 197.675781 204.929688 197.515625 204.648438 197.257812 204.5 "/>
<path style=" stroke:none;fill-rule:nonzero;fill:rgb(86.669922%,73.728943%,52.159119%);fill-opacity:1;" d="M 182.320312 129.152344 C 185.449219 130.636719 188.210938 125.972656 185.058594 124.460938 C 179.542969 121.847656 175.847656 117.070312 172.3125 112.269531 C 170.265625 109.480469 165.550781 112.183594 167.625 114.992188 C 171.699219 120.519531 175.972656 126.132812 182.320312 129.152344 "/>
<path style=" stroke:none;fill-rule:nonzero;fill:rgb(86.669922%,73.728943%,52.159119%);fill-opacity:1;" d="M 193.390625 122.03125 C 196.019531 124.300781 199.875 120.484375 197.222656 118.199219 C 191.183594 112.992188 185.230469 107.699219 179.347656 102.320312 C 176.769531 99.964844 172.929688 103.792969 175.519531 106.152344 C 181.398438 111.53125 187.351562 116.824219 193.390625 122.03125 "/>
<path style=" stroke:none;fill-rule:nonzero;fill:rgb(86.669922%,73.728943%,52.159119%);fill-opacity:1;" d="M 197.359375 113.175781 C 199.445312 115.925781 204.144531 113.226562 202.035156 110.4375 C 197.503906 104.480469 192.765625 98.710938 187.757812 93.148438 C 185.414062 90.546875 181.59375 94.386719 183.925781 96.980469 C 188.617188 102.199219 193.109375 107.589844 197.359375 113.175781 "/>
<path style=" stroke:none;fill-rule:nonzero;fill:rgb(86.669922%,73.728943%,52.159119%);fill-opacity:1;" d="M 188.480469 90.59375 C 191.046875 91.636719 193.578125 94.71875 195.6875 96.5 C 198.046875 98.503906 200.402344 100.492188 202.769531 102.492188 C 205.410156 104.738281 209.265625 100.921875 206.601562 98.660156 C 203.644531 96.167969 200.695312 93.664062 197.75 91.171875 C 195.28125 89.082031 192.9375 86.589844 189.917969 85.363281 C 186.691406 84.0625 185.277344 89.304688 188.480469 90.59375 "/>
<path style=" stroke:none;fill-rule:nonzero;fill:rgb(86.669922%,73.728943%,52.159119%);fill-opacity:1;" d="M 209.265625 96.367188 C 210.628906 97.886719 212.46875 97.1875 213.328125 95.851562 C 213.574219 96.78125 213.625 97.65625 213.453125 98.476562 C 213.378906 98.820312 213.539062 99.164062 213.855469 99.335938 C 213.96875 99.398438 214.089844 99.421875 214.226562 99.421875 C 214.433594 99.421875 214.628906 99.335938 214.789062 99.175781 L 219.527344 94.15625 C 219.761719 93.910156 219.8125 93.542969 219.652344 93.234375 C 219.492188 92.941406 219.148438 92.78125 218.816406 92.839844 C 217.148438 93.160156 215.257812 92.855469 213.046875 91.921875 C 212.875 91.847656 212.703125 91.847656 212.53125 91.894531 C 208.578125 87.488281 204.625 83.066406 200.671875 78.644531 C 198.339844 76.042969 194.523438 79.886719 196.84375 82.488281 C 200.980469 87.105469 205.128906 91.734375 209.265625 96.367188 "/>
<path style=" stroke:none;fill-rule:nonzero;fill:rgb(86.669922%,73.728943%,52.159119%);fill-opacity:1;" d="M 205.816406 72.9375 C 211.21875 76.265625 215.859375 80.449219 219.796875 85.425781 C 220.179688 85.902344 220.621094 86.113281 221.050781 86.234375 C 221.703125 87.449219 222.117188 88.53125 222.21875 89.402344 C 222.253906 89.710938 222.460938 89.96875 222.746094 90.066406 C 222.832031 90.089844 222.917969 90.101562 223.003906 90.101562 C 223.210938 90.101562 223.421875 90.015625 223.566406 89.855469 L 226.046875 87.242188 C 226.242188 87.03125 226.316406 86.738281 226.230469 86.46875 C 226.144531 86.199219 225.925781 85.988281 225.640625 85.929688 C 225.003906 85.792969 224.292969 85.558594 223.53125 85.277344 C 224.328125 84.292969 224.625 82.832031 223.628906 81.582031 C 219.40625 76.277344 214.324219 71.820312 208.554688 68.246094 C 205.570312 66.414062 202.84375 71.105469 205.816406 72.9375 "/>
<path style=" stroke:none;fill-rule:nonzero;fill:rgb(86.669922%,73.728943%,52.159119%);fill-opacity:1;" d="M 228.171875 76.65625 C 230.859375 78.832031 234.726562 75.011719 232 72.824219 C 226.636719 68.492188 221.273438 64.167969 215.90625 59.847656 C 213.207031 57.683594 209.351562 61.492188 212.066406 63.6875 C 217.441406 68.011719 222.804688 72.335938 228.171875 76.65625 "/>
<path style=" stroke:none;fill-rule:nonzero;fill:rgb(86.669922%,73.728943%,52.159119%);fill-opacity:1;" d="M 234.285156 71.746094 C 235.144531 72.542969 236.136719 72.605469 236.996094 72.285156 C 237.011719 72.664062 237.070312 73.058594 237.046875 73.414062 C 237.023438 73.746094 237.207031 74.066406 237.511719 74.199219 C 237.613281 74.25 237.722656 74.261719 237.832031 74.261719 C 238.042969 74.261719 238.25 74.175781 238.410156 74.015625 C 241.75 70.40625 245.101562 66.757812 248.402344 63.101562 C 248.597656 62.867188 248.660156 62.546875 248.539062 62.265625 C 248.28125 61.6875 247.519531 61.859375 246.71875 61.566406 C 246.15625 61.355469 245.566406 61.109375 244.976562 60.828125 C 244.953125 60.25 244.71875 59.660156 244.117188 59.144531 C 238.988281 54.714844 234.261719 49.863281 229.976562 44.605469 C 227.777344 41.894531 223.960938 45.75 226.144531 48.4375 C 230.429688 53.695312 235.15625 58.542969 240.289062 62.976562 C 241.085938 63.652344 241.96875 63.75 242.78125 63.53125 C 242.914062 63.949219 243.074219 64.351562 243.171875 64.757812 C 243.367188 65.667969 243.109375 66.34375 242.3125 66.957031 C 241.121094 67.863281 239.761719 68.195312 238.1875 68.011719 C 238.164062 67.976562 238.152344 67.9375 238.113281 67.902344 C 233.03125 63.171875 228.160156 58.226562 223.492188 53.066406 C 221.148438 50.476562 217.332031 54.320312 219.664062 56.910156 C 224.328125 62.054688 229.203125 67.003906 234.285156 71.746094 "/>
<path style=" stroke:none;fill-rule:nonzero;fill:rgb(86.669922%,73.728943%,52.159119%);fill-opacity:1;" d="M 253.007812 53.398438 C 248.242188 48.597656 243.492188 43.796875 238.742188 38.984375 C 236.285156 36.503906 232.441406 40.332031 234.910156 42.8125 C 239.660156 47.628906 244.414062 52.429688 249.164062 57.230469 C 249.457031 57.539062 249.777344 57.722656 250.097656 57.855469 C 250.109375 57.917969 250.144531 57.992188 250.15625 58.054688 C 250.21875 58.382812 250.257812 58.679688 250.257812 58.972656 C 250.269531 59.292969 250.464844 59.589844 250.773438 59.699219 C 250.859375 59.722656 250.957031 59.746094 251.042969 59.746094 C 251.261719 59.746094 251.484375 59.648438 251.632812 59.476562 L 254.160156 56.628906 C 254.417969 56.347656 254.429688 55.917969 254.183594 55.609375 C 254.074219 55.488281 253.925781 55.425781 253.78125 55.375 C 253.828125 54.714844 253.609375 54.011719 253.007812 53.398438 "/>
<path style=" stroke:none;fill-rule:nonzero;fill:rgb(86.669922%,73.728943%,52.159119%);fill-opacity:1;" d="M 235.523438 34.96875 C 243.074219 38.074219 248.769531 44.089844 254.148438 50.023438 C 254.515625 50.425781 254.933594 50.636719 255.351562 50.757812 C 255.398438 51.730469 255.277344 52.636719 254.882812 53.460938 C 254.726562 53.816406 254.835938 54.246094 255.167969 54.457031 C 255.300781 54.542969 255.449219 54.578125 255.597656 54.578125 C 255.816406 54.578125 256.039062 54.492188 256.183594 54.320312 L 258.457031 51.730469 C 258.628906 51.53125 258.691406 51.273438 258.628906 51.027344 C 258.566406 50.785156 258.394531 50.574219 258.160156 50.488281 C 257.976562 50.402344 257.804688 50.28125 257.632812 50.183594 C 258.714844 49.25 259.21875 47.554688 257.988281 46.191406 C 251.890625 39.449219 245.480469 33.234375 236.960938 29.734375 C 233.730469 28.421875 232.332031 33.664062 235.523438 34.96875 "/>
<path style=" stroke:none;fill-rule:nonzero;fill:rgb(86.669922%,73.728943%,52.159119%);fill-opacity:1;" d="M 258.960938 39.242188 C 261.671875 41.378906 265.539062 37.558594 262.800781 35.410156 C 257.941406 31.589844 253.09375 27.757812 248.230469 23.941406 C 245.515625 21.804688 241.664062 25.621094 244.398438 27.773438 C 249.25 31.589844 254.109375 35.421875 258.960938 39.242188 "/>
<path style=" stroke:none;fill-rule:nonzero;fill:rgb(86.669922%,73.728943%,52.159119%);fill-opacity:1;" d="M 267.613281 35.65625 C 270.105469 38.085938 273.949219 34.253906 271.445312 31.8125 C 266.730469 27.230469 262.015625 22.636719 257.316406 18.046875 C 254.8125 15.613281 250.96875 19.445312 253.472656 21.878906 C 258.1875 26.46875 262.902344 31.0625 267.613281 35.65625 "/>
<path style=" stroke:none;fill-rule:nonzero;fill:rgb(86.669922%,73.728943%,52.159119%);fill-opacity:1;" d="M 271.875 28.042969 C 272.339844 28.347656 272.78125 28.433594 273.226562 28.445312 C 273.238281 28.460938 273.226562 28.496094 273.238281 28.507812 C 273.640625 29.34375 273.898438 30.117188 274.023438 30.828125 C 274.070312 31.136719 274.304688 31.382812 274.601562 31.46875 C 274.660156 31.480469 274.734375 31.492188 274.796875 31.492188 C 275.03125 31.492188 275.261719 31.382812 275.421875 31.171875 L 276.796875 29.441406 C 276.957031 29.234375 276.992188 28.949219 276.90625 28.703125 C 276.835938 28.460938 276.625 28.261719 276.367188 28.203125 C 275.875 28.066406 275.421875 27.882812 274.957031 27.699219 C 276.0625 26.566406 276.34375 24.480469 274.613281 23.363281 C 269.761719 20.21875 265.269531 16.671875 261.082031 12.703125 C 258.554688 10.296875 254.710938 14.128906 257.253906 16.535156 C 261.757812 20.820312 266.644531 24.664062 271.875 28.042969 "/>
<path style=" stroke:none;fill-rule:nonzero;fill:rgb(86.669922%,73.728943%,52.159119%);fill-opacity:1;" d="M 356.765625 87.535156 C 353.941406 84.480469 351.105469 81.421875 348.28125 78.363281 C 345.570312 75.417969 341.761719 72.347656 340.03125 68.722656 C 338.523438 65.582031 333.84375 68.320312 335.34375 71.460938 C 337.121094 75.171875 340.695312 78.128906 343.457031 81.113281 C 346.613281 84.527344 349.78125 87.953125 352.933594 91.367188 C 355.304688 93.933594 359.132812 90.089844 356.765625 87.535156 "/>
<path style=" stroke:none;fill-rule:nonzero;fill:rgb(86.669922%,73.728943%,52.159119%);fill-opacity:1;" d="M 331.15625 75.011719 C 328.566406 72.691406 324.710938 76.523438 327.328125 78.84375 C 333.355469 84.234375 339.371094 89.613281 345.398438 95.003906 C 347.988281 97.3125 351.84375 93.492188 349.226562 91.160156 C 343.210938 85.78125 337.183594 80.390625 331.15625 75.011719 "/>
<path style=" stroke:none;fill-rule:nonzero;fill:rgb(86.669922%,73.728943%,52.159119%);fill-opacity:1;" d="M 332.226562 84.492188 C 329.792969 82.011719 327.425781 80.207031 323.902344 79.8125 C 320.441406 79.433594 320.464844 84.859375 323.902344 85.238281 C 326.773438 85.546875 329.191406 89.167969 331.023438 91.074219 C 333.355469 93.515625 335.699219 95.960938 338.03125 98.402344 C 340.449219 100.933594 344.28125 97.089844 341.863281 94.574219 C 338.65625 91.207031 335.476562 87.820312 332.226562 84.492188 "/>
<path style=" stroke:none;fill-rule:nonzero;fill:rgb(86.669922%,73.728943%,52.159119%);fill-opacity:1;" d="M 321.789062 88.640625 C 320.597656 87.980469 319.457031 88.066406 318.523438 88.53125 C 318.464844 88.261719 318.253906 88.027344 317.984375 87.953125 C 317.703125 87.867188 317.394531 87.964844 317.1875 88.1875 L 315 90.570312 C 314.816406 90.777344 314.753906 91.085938 314.839844 91.355469 C 314.941406 91.625 315.171875 91.820312 315.457031 91.871094 C 315.761719 91.921875 316.070312 92.03125 316.375 92.09375 C 316.402344 93.160156 316.917969 94.203125 318.132812 94.878906 C 324.0625 98.171875 329.488281 102.085938 334.460938 106.703125 C 337.859375 109.875 342.980469 104.765625 339.566406 101.597656 C 334.164062 96.574219 328.222656 92.226562 321.789062 88.640625 "/>
<path style=" stroke:none;fill-rule:nonzero;fill:rgb(86.669922%,73.728943%,52.159119%);fill-opacity:1;" d="M 314.941406 96.367188 C 313.589844 95.101562 311.90625 95.59375 310.972656 96.671875 C 310.949219 96.648438 310.9375 96.625 310.914062 96.597656 C 310.789062 96.390625 310.558594 96.253906 310.3125 96.230469 C 310.066406 96.207031 309.820312 96.304688 309.660156 96.5 L 307.402344 99.066406 C 307.167969 99.335938 307.207031 99.71875 307.402344 100.011719 C 307.550781 100.222656 307.808594 100.332031 308.078125 100.332031 C 308.175781 100.332031 308.273438 100.320312 308.371094 100.28125 C 308.46875 100.246094 308.570312 100.210938 308.703125 100.183594 C 309.414062 100.011719 310.164062 99.953125 310.925781 99.9375 C 311 100.023438 311.023438 100.109375 311.097656 100.195312 C 317.285156 105.96875 322.992188 112.167969 328.234375 118.800781 C 330.40625 121.539062 334.214844 117.683594 332.078125 114.96875 C 326.835938 108.339844 321.113281 102.136719 314.941406 96.367188 "/>
<path style=" stroke:none;fill-rule:nonzero;fill:rgb(86.669922%,73.728943%,52.159119%);fill-opacity:1;" d="M 325.078125 115.839844 C 318.253906 113.175781 313.75 106.703125 307.230469 103.414062 C 306.9375 103.265625 306.640625 103.21875 306.347656 103.179688 C 306.308594 102.933594 306.234375 102.691406 306.234375 102.480469 C 306.234375 102.160156 306.039062 101.867188 305.734375 101.757812 C 305.425781 101.644531 305.082031 101.71875 304.859375 101.964844 L 302.761719 104.394531 C 302.554688 104.640625 302.515625 105 302.664062 105.292969 C 302.773438 105.488281 302.957031 105.601562 303.167969 105.648438 C 303.105469 106.089844 303.191406 106.53125 303.386719 106.9375 C 302.308594 106.347656 301.117188 106.804688 300.367188 107.710938 C 300.121094 107.6875 299.875 107.75 299.71875 107.945312 C 296.5 111.726562 293.308594 115.546875 290.140625 119.367188 C 289.921875 119.625 289.894531 119.992188 290.066406 120.273438 C 290.238281 120.570312 290.570312 120.714844 290.902344 120.640625 C 291.640625 120.484375 292.449219 120.457031 293.296875 120.507812 C 293.480469 121 293.777344 121.464844 294.339844 121.808594 C 300.21875 125.480469 305.660156 129.914062 311.207031 134.039062 C 314.019531 136.125 316.71875 131.425781 313.945312 129.359375 C 308.382812 125.234375 302.957031 120.800781 297.078125 117.128906 C 296.695312 116.898438 296.328125 116.761719 295.960938 116.726562 C 296.046875 115.988281 296.253906 115.265625 296.648438 114.589844 C 297.175781 113.65625 297.753906 113.324219 298.648438 113.398438 C 300.011719 113.53125 301.460938 113.886719 302.945312 114.476562 C 302.996094 114.492188 303.03125 114.476562 303.082031 114.476562 C 307.855469 119.929688 312.742188 125.257812 317.824219 130.417969 C 320.28125 132.898438 324.109375 129.066406 321.65625 126.585938 C 315.835938 120.679688 310.226562 114.5625 304.8125 108.289062 C 311.625 111.851562 316.351562 118.234375 323.644531 121.070312 C 326.898438 122.335938 328.308594 117.09375 325.078125 115.839844 "/>
<path style=" stroke:none;fill-rule:nonzero;fill:rgb(86.669922%,73.728943%,52.159119%);fill-opacity:1;" d="M 294.722656 131.730469 C 292.289062 129.226562 290.226562 125.726562 286.53125 125.148438 C 283.121094 124.609375 281.648438 129.828125 285.097656 130.367188 C 286.972656 130.675781 288.042969 132.46875 289.246094 133.804688 C 290.597656 135.292969 291.996094 136.730469 293.46875 138.089844 C 296.144531 140.570312 299.03125 142.808594 302.023438 144.882812 C 304.898438 146.871094 307.625 142.167969 304.761719 140.203125 C 301.140625 137.699219 297.789062 134.886719 294.722656 131.730469 "/>
<path style=" stroke:none;fill-rule:nonzero;fill:rgb(86.669922%,73.728943%,52.159119%);fill-opacity:1;" d="M 281.511719 133.660156 C 281.09375 133.5 280.703125 133.449219 280.34375 133.488281 C 280.34375 133.449219 280.320312 133.414062 280.320312 133.386719 C 280.246094 133.09375 280.027344 132.859375 279.730469 132.785156 C 279.4375 132.726562 279.128906 132.824219 278.945312 133.058594 L 276.441406 136.125 C 276.246094 136.359375 276.207031 136.703125 276.355469 136.972656 C 276.492188 137.257812 276.761719 137.441406 277.105469 137.402344 C 277.546875 137.367188 278.0625 137.429688 278.589844 137.527344 C 278.882812 138.105469 279.339844 138.609375 280.074219 138.890625 C 287.625 141.863281 294.019531 146.75 299.101562 153.046875 C 301.289062 155.761719 305.105469 151.90625 302.933594 149.21875 C 297.238281 142.144531 289.945312 136.972656 281.511719 133.660156 "/>
<path style=" stroke:none;fill-rule:nonzero;fill:rgb(86.669922%,73.728943%,52.159119%);fill-opacity:1;" d="M 276.183594 143.800781 C 275.53125 143.078125 274.773438 142.894531 274.058594 143.003906 C 273.9375 142.488281 273.863281 142.007812 273.863281 141.542969 C 273.863281 141.210938 273.640625 140.914062 273.335938 140.804688 C 273.027344 140.695312 272.671875 140.792969 272.464844 141.050781 L 268.117188 146.429688 C 267.898438 146.699219 267.886719 147.09375 268.09375 147.386719 C 268.289062 147.667969 268.671875 147.78125 269 147.65625 C 270.007812 147.277344 271.039062 147.179688 272.144531 147.289062 C 272.21875 147.398438 272.242188 147.535156 272.351562 147.632812 C 277.621094 153.503906 283.339844 158.90625 289.492188 163.84375 C 292.191406 166.003906 296.046875 162.183594 293.320312 160.011719 C 287.171875 155.074219 281.449219 149.671875 276.183594 143.800781 "/>
<path style=" stroke:none;fill-rule:nonzero;fill:rgb(86.669922%,73.728943%,52.159119%);fill-opacity:1;" d="M 267.011719 149.425781 C 264.632812 146.859375 260.800781 150.703125 263.183594 153.257812 C 268.757812 159.25 274.070312 165.820312 280.210938 171.246094 C 282.8125 173.542969 286.667969 169.722656 284.039062 167.402344 C 277.902344 161.988281 272.585938 155.417969 267.011719 149.425781 "/>
<path style=" stroke:none;fill-rule:nonzero;fill:rgb(86.669922%,73.728943%,52.159119%);fill-opacity:1;" d="M 318.242188 59.894531 C 317.101562 58.839844 315.921875 57.757812 314.425781 57.109375 C 313.566406 56.75 313.394531 56.113281 313.40625 55.644531 C 313.429688 54.824219 313.996094 54 314.742188 53.730469 C 314.964844 53.644531 315.148438 53.460938 315.222656 53.226562 C 315.296875 52.992188 315.257812 52.734375 315.113281 52.539062 C 314.535156 51.691406 314.925781 50.722656 315.527344 50.167969 C 315.847656 49.886719 316.277344 49.667969 316.757812 49.667969 C 317.125 49.667969 317.519531 49.800781 317.898438 50.121094 C 318.917969 51.003906 319.949219 51.851562 320.980469 52.699219 C 322.527344 53.976562 324.132812 55.300781 325.632812 56.691406 L 326.222656 57.21875 C 328.429688 59.207031 330.347656 61.160156 329.414062 63.0625 C 329.402344 63.0625 329.402344 63.074219 329.402344 63.074219 C 329.046875 63.824219 328.222656 64.230469 327.339844 64.082031 C 325.460938 63.789062 322.734375 63.234375 320.613281 61.847656 C 319.777344 61.320312 319.027344 60.621094 318.242188 59.894531 Z M 303.683594 39.78125 C 303.203125 40.457031 302.296875 40.960938 301.386719 40.503906 C 301.179688 40.394531 300.921875 40.382812 300.699219 40.492188 C 300.476562 40.589844 300.320312 40.789062 300.269531 41.035156 C 300.085938 41.808594 299.347656 42.484375 298.539062 42.605469 C 298.070312 42.667969 297.421875 42.59375 296.941406 41.78125 C 296.109375 40.394531 294.878906 39.363281 293.691406 38.367188 C 292.855469 37.679688 292.082031 37.03125 291.429688 36.269531 C 289.785156 34.351562 288.878906 31.714844 288.335938 29.894531 C 288.089844 29.035156 288.375 28.175781 289.074219 27.710938 C 289.480469 27.441406 289.910156 27.328125 290.363281 27.328125 C 292.167969 27.328125 294.242188 29.148438 295.714844 30.4375 L 296.367188 31 C 297.726562 32.167969 299.03125 33.382812 300.332031 34.597656 C 301.351562 35.542969 302.367188 36.488281 303.414062 37.421875 C 304.273438 38.195312 304.113281 39.15625 303.683594 39.78125 Z M 277.007812 174.179688 C 269.027344 168.890625 262.703125 161.878906 258.160156 153.464844 C 258.125 153.417969 258.089844 153.390625 258.050781 153.34375 C 258.382812 152.949219 258.703125 152.542969 259.035156 152.152344 C 263.699219 146.394531 268.511719 140.4375 273.457031 134.789062 C 280.234375 127.066406 286.875 119.035156 293.308594 111.261719 C 306.605469 95.210938 320.339844 78.609375 335.820312 63.933594 C 335.871094 63.886719 335.917969 63.835938 335.957031 63.761719 C 336.226562 63.320312 336.570312 62.78125 337.035156 62.242188 C 337.601562 61.601562 338.214844 61.207031 338.855469 61.097656 C 338.988281 61.074219 339.125 61.011719 339.234375 60.914062 C 343.898438 56.835938 350.355469 48.03125 347.816406 41.78125 C 347.765625 41.671875 347.707031 41.574219 347.621094 41.5 C 346.636719 40.605469 345.285156 39.804688 343.996094 39.03125 C 342.84375 38.355469 341.652344 37.65625 340.84375 36.945312 C 339.542969 35.800781 338.214844 34.671875 336.890625 33.542969 C 334.300781 31.332031 331.609375 29.0625 329.132812 26.679688 C 327.546875 25.144531 325.964844 23.609375 324.390625 22.074219 C 319.1875 17.003906 313.808594 11.757812 308.261719 6.871094 C 308.175781 6.796875 308.078125 6.738281 307.96875 6.710938 C 301.421875 4.820312 293.417969 12.433594 289.921875 17.675781 C 289.847656 17.800781 289.796875 17.9375 289.796875 18.082031 C 289.761719 18.734375 289.464844 19.382812 288.902344 20.035156 C 288.433594 20.5625 287.945312 20.980469 287.527344 21.300781 C 287.464844 21.347656 287.417969 21.410156 287.378906 21.460938 C 287.035156 21.9375 286.679688 22.394531 286.335938 22.859375 C 286.59375 22.207031 286.570312 21.460938 286.003906 20.675781 C 280.601562 13.160156 272.179688 9.277344 265.75 2.84375 C 263.28125 0.363281 259.4375 4.207031 261.90625 6.675781 C 267.945312 12.714844 276.28125 16.402344 281.328125 23.414062 C 282.480469 25.019531 284.480469 24.800781 285.625 23.804688 C 273.507812 40.160156 259.5625 55.242188 246.03125 69.828125 C 239.183594 77.222656 232.097656 84.859375 225.324219 92.582031 C 219.664062 99.042969 213.722656 105.414062 207.976562 111.59375 L 204.6875 115.128906 C 204.539062 115.289062 204.464844 115.496094 204.476562 115.707031 C 204.476562 115.804688 204.503906 115.914062 204.539062 116.109375 C 204.5625 116.453125 204.808594 116.738281 205.152344 116.824219 C 206.207031 117.058594 207.214844 117.71875 208.285156 118.40625 C 209.253906 119.046875 210.261719 119.710938 211.265625 120.066406 C 212.652344 121.011719 214.066406 121.882812 215.5625 122.816406 C 215.734375 122.914062 215.929688 122.949219 216.128906 122.914062 C 219.160156 122.335938 220.707031 121.476562 221 120.199219 C 221.371094 118.652344 219.640625 117.363281 219.125 116.972656 C 217.023438 115.140625 215.292969 113.421875 213.660156 111.050781 C 213.21875 110.425781 213.339844 109.664062 213.597656 109.160156 C 213.90625 108.558594 214.457031 108.179688 215.074219 108.179688 C 216.226562 108.152344 219.125 109.246094 221.726562 110.21875 C 226.808594 112.097656 228.664062 112.683594 229.507812 111.910156 C 230.699219 110.832031 231.253906 109.875 231.226562 108.914062 C 231.191406 107.578125 230.074219 106.65625 228.882812 105.671875 C 227.582031 104.605469 226.121094 103.390625 225.691406 101.460938 C 225.507812 100.640625 225.726562 99.863281 226.269531 99.398438 C 226.796875 98.933594 227.558594 98.820312 228.320312 99.117188 C 228.636719 99.238281 229.410156 99.679688 230.234375 100.148438 C 234.417969 102.53125 237.722656 104.238281 239.035156 102.800781 C 239.453125 102.34375 239.660156 101.792969 239.625 101.179688 C 239.527344 99.164062 236.863281 96.820312 234.519531 94.746094 C 233.449219 93.8125 232.429688 92.914062 232.050781 92.375 C 231.695312 91.847656 231.695312 91.011719 232.074219 90.335938 C 232.257812 90.003906 232.6875 89.476562 233.425781 89.511719 C 234.46875 89.5625 238.015625 91.515625 240.621094 92.941406 C 245.394531 95.566406 246.132812 95.898438 246.820312 95.113281 C 248.832031 92.117188 245.996094 89.796875 243.492188 87.746094 C 241.785156 86.359375 240.019531 84.910156 239.476562 83.277344 C 239.316406 82.785156 239.390625 82.195312 239.648438 81.714844 C 239.871094 81.3125 240.214844 81.027344 240.605469 80.929688 C 243.871094 80.105469 246.277344 81.46875 249.507812 83.667969 C 250.257812 84.578125 251.042969 85.054688 251.914062 84.996094 C 252.847656 84.96875 253.707031 84.355469 254.527344 83.140625 C 254.761719 82.808594 254.699219 82.367188 254.394531 82.109375 C 253.289062 81.175781 252.160156 80.242188 251.066406 79.371094 C 249.53125 77.996094 248.28125 76.804688 247.320312 75.085938 C 247.003906 74.484375 246.953125 73.757812 247.1875 73.179688 C 247.320312 72.851562 247.617188 72.421875 248.242188 72.234375 C 251.558594 71.242188 254.46875 73.109375 256.984375 75.109375 C 257.929688 76.375 258.960938 77.011719 260.050781 77.039062 C 260.066406 77.039062 260.078125 77.039062 260.089844 77.039062 C 261.269531 77.039062 262.398438 76.324219 263.539062 74.863281 C 263.761719 74.59375 263.773438 74.214844 263.574219 73.929688 C 262.285156 72.0625 260.691406 70.355469 258.886719 68.894531 L 258.40625 68.492188 C 257.328125 67.546875 256.382812 66.746094 255.683594 65.519531 C 255.289062 64.808594 255.398438 63.777344 255.925781 63.101562 C 256.210938 62.742188 256.714844 62.375 257.523438 62.597656 C 259.523438 63.160156 261.195312 64.265625 262.960938 65.433594 C 264.089844 66.195312 265.269531 66.980469 266.570312 67.617188 C 268.265625 68.464844 270.339844 69.277344 271.261719 68.109375 C 272.78125 66.207031 268.351562 60.535156 267.429688 59.390625 C 266.398438 58.175781 265.566406 56.960938 264.839844 55.621094 C 264.203125 54.566406 264.691406 53.765625 264.9375 53.472656 C 265.355469 52.96875 266.226562 52.515625 267.269531 52.90625 C 269.210938 53.65625 269.589844 53.925781 271.1875 55.082031 L 271.457031 55.277344 C 272.625 56.910156 273.726562 57.648438 274.785156 57.550781 C 275.742188 57.453125 276.539062 56.703125 277.152344 55.316406 C 277.277344 55.058594 277.238281 54.738281 277.066406 54.515625 C 276.28125 53.507812 275.3125 52.699219 274.378906 51.914062 C 273.113281 50.84375 271.910156 49.839844 271.222656 48.449219 C 270.84375 47.652344 270.90625 46.707031 271.371094 46.082031 C 271.652344 45.722656 272.167969 45.34375 273.113281 45.503906 C 274.660156 45.785156 276.40625 46.964844 278.097656 48.105469 C 280.542969 49.765625 283.070312 51.472656 285.625 51.015625 C 285.894531 50.96875 286.113281 50.785156 286.214844 50.539062 C 286.324219 50.292969 286.285156 50.011719 286.128906 49.789062 C 285.917969 49.480469 285.671875 49.199219 285.414062 48.90625 C 285.132812 48.5625 284.839844 48.21875 284.628906 47.886719 C 284.078125 46.953125 283.390625 46.152344 282.40625 45.332031 C 280.898438 44.054688 279.730469 42.851562 278.957031 41.046875 C 278.652344 40.347656 278.96875 39.769531 279.191406 39.5 C 279.644531 38.910156 280.445312 38.578125 281.105469 38.699219 C 281.734375 38.796875 282.308594 39.054688 282.933594 39.339844 C 283.363281 39.523438 283.808594 39.71875 284.25 39.867188 C 284.886719 40.101562 285.574219 40.0625 286.226562 40.015625 C 286.742188 39.988281 287.21875 39.964844 287.589844 40.0625 C 290.546875 40.886719 293.199219 42.886719 295.175781 44.546875 C 296.082031 45.308594 295.851562 46.226562 295.335938 46.84375 C 294.792969 47.480469 293.589844 48.09375 292.4375 47.125 C 291.257812 46.152344 289.921875 45.050781 288.449219 44.300781 C 288.128906 44.128906 287.722656 44.214844 287.488281 44.496094 C 287.257812 44.765625 287.246094 45.171875 287.464844 45.464844 C 287.722656 45.824219 288.019531 46.179688 288.3125 46.546875 C 289.148438 47.554688 290.019531 48.597656 290.238281 49.703125 C 290.449219 50.808594 289.808594 51.59375 289.148438 51.960938 C 288.890625 52.097656 288.730469 52.378906 288.742188 52.675781 C 288.753906 53.042969 288.65625 53.976562 287.527344 54.40625 C 285.941406 54.984375 284.457031 54.996094 282.886719 54.457031 C 282.578125 54.34375 282.261719 54.429688 282.050781 54.664062 C 281.832031 54.886719 281.78125 55.214844 281.90625 55.511719 C 282.664062 57.265625 282.40625 58.726562 281.070312 60.25 C 279.683594 61.847656 277.976562 62.277344 275.703125 61.601562 C 275.398438 61.515625 275.078125 61.613281 274.882812 61.859375 C 274.6875 62.105469 274.648438 62.4375 274.785156 62.71875 C 275.753906 64.621094 276.246094 66.929688 273.273438 70.921875 C 272.109375 72.492188 270.660156 73.007812 268.695312 72.554688 C 268.414062 72.492188 268.117188 72.59375 267.921875 72.8125 C 267.738281 73.035156 267.675781 73.339844 267.785156 73.613281 C 268.4375 75.304688 268.042969 76.9375 266.558594 78.746094 C 264.679688 81.054688 263.195312 81.714844 260.457031 81.445312 C 260.136719 81.433594 259.867188 81.554688 259.707031 81.8125 C 259.550781 82.070312 259.5625 82.390625 259.722656 82.648438 C 261.011719 84.675781 261.011719 86.601562 259.683594 88.886719 C 258.863281 90.335938 257.953125 91.171875 256.921875 91.429688 C 255.828125 91.710938 254.527344 91.367188 252.847656 90.347656 C 252.539062 90.164062 252.148438 90.199219 251.890625 90.445312 C 251.632812 90.691406 251.570312 91.074219 251.742188 91.390625 C 252.28125 92.410156 252.527344 94.042969 249.554688 97.667969 C 247.566406 100.074219 245.960938 99.964844 244.78125 99.59375 C 244.523438 99.507812 244.242188 99.570312 244.042969 99.730469 C 243.835938 99.902344 243.726562 100.160156 243.761719 100.429688 C 243.910156 101.804688 243.28125 103.402344 241.835938 105.292969 C 240.484375 107.074219 238.960938 107.773438 237.046875 107.480469 C 236.714844 107.429688 236.457031 107.625 236.296875 107.894531 C 236.136719 108.167969 236.175781 108.558594 236.359375 108.816406 C 236.640625 109.417969 236.199219 110.203125 235.90625 110.609375 C 233.472656 114.085938 231.203125 116.710938 227.175781 116.578125 C 226.429688 116.566406 225.714844 116.320312 225.054688 116.050781 C 224.734375 115.925781 224.367188 116.023438 224.144531 116.28125 C 223.9375 116.554688 223.910156 116.933594 224.09375 117.214844 C 225.445312 119.253906 225.53125 121.292969 221.628906 124.644531 C 218.765625 127.066406 217 127.886719 214.066406 126.253906 C 213.957031 126.191406 213.820312 126.09375 213.660156 125.984375 C 213.378906 125.789062 212.996094 125.800781 212.714844 126.007812 C 212.445312 126.230469 212.347656 126.597656 212.480469 126.929688 C 213.84375 130.269531 213.550781 133.203125 211.550781 135.882812 C 210.898438 136.765625 209.890625 137.453125 207.339844 135.929688 C 207.019531 135.746094 206.636719 135.78125 206.378906 136.039062 C 206.121094 136.285156 206.074219 136.679688 206.246094 136.988281 C 207.152344 138.570312 207.71875 140.570312 205.003906 143.496094 C 202.96875 145.71875 200.96875 146.050781 198.105469 144.625 C 197.898438 144.515625 197.664062 144.515625 197.457031 144.601562 C 197.246094 144.671875 197.085938 144.84375 197.015625 145.066406 C 196.695312 145.949219 196.054688 146.980469 195.085938 148.199219 C 194.570312 148.8125 193.980469 149.277344 193.292969 149.621094 C 193.0625 149.746094 192.902344 149.964844 192.863281 150.222656 C 192.828125 150.480469 192.925781 150.738281 193.121094 150.910156 C 194.300781 151.96875 195.441406 153.035156 196.671875 154.238281 C 197.761719 155.320312 197.285156 156.832031 196.621094 157.503906 C 196.265625 157.863281 195.554688 158.328125 194.707031 157.492188 C 192.816406 155.628906 190.800781 153.835938 188.863281 152.113281 C 187.035156 150.480469 185.144531 148.789062 183.339844 147.007812 C 183.324219 146.980469 183.203125 146.808594 183.191406 146.796875 C 183.140625 146.738281 183.09375 146.6875 183.042969 146.652344 C 182.996094 146.625 182.957031 146.589844 182.910156 146.550781 C 182.894531 146.480469 182.882812 146.40625 182.847656 146.332031 C 182.601562 145.753906 182.6875 145.117188 183.117188 144.613281 C 183.582031 144.035156 184.332031 143.765625 185.042969 143.914062 C 185.15625 143.925781 185.277344 143.914062 185.402344 143.875 L 185.695312 144.15625 C 185.707031 144.15625 185.878906 144.269531 185.878906 144.269531 C 186.789062 144.882812 192.605469 147.324219 193.808594 145.679688 C 194.59375 144.613281 193.257812 143.308594 191.699219 142.082031 C 190.101562 140.792969 189.882812 140.558594 188.765625 138.890625 C 188.152344 137.957031 188.507812 137.246094 188.777344 136.902344 C 189.242188 136.3125 190.210938 135.84375 191.21875 136.214844 C 193.269531 136.960938 194.582031 137.746094 196.558594 138.976562 C 197.566406 139.527344 198.535156 140.167969 199.273438 140.65625 C 199.53125 140.828125 199.863281 140.84375 200.132812 140.671875 C 200.390625 140.5 200.539062 140.191406 200.488281 139.882812 L 199.652344 134.421875 C 199.628906 134.234375 199.53125 134.078125 199.394531 133.953125 C 197.566406 132.355469 196.414062 131.277344 195.441406 129.152344 C 194.988281 128.109375 195.96875 127.164062 196.71875 126.808594 L 197.921875 126.253906 C 198.402344 126.019531 199.222656 126.277344 199.652344 126.660156 C 200.683594 127.566406 204.21875 129.632812 206.785156 131.105469 L 207.265625 131.386719 C 208.171875 131.964844 208.652344 131.535156 208.824219 131.3125 C 210.003906 129.742188 202.746094 120.519531 202.414062 120.273438 C 202.378906 120.199219 202.28125 120.089844 202.21875 120.027344 C 201.996094 119.84375 201.691406 119.78125 201.421875 119.894531 C 201.003906 120.054688 200.585938 120.164062 200.167969 120.226562 C 199.984375 120.25 199.824219 120.335938 199.703125 120.46875 C 196.3125 124.128906 192.691406 128.070312 189.132812 132.148438 L 187.5 134.003906 C 186.40625 135.242188 185.277344 136.507812 184.171875 137.773438 C 176.757812 132.085938 169.847656 125.8125 163.414062 119.035156 C 161.007812 116.492188 157.175781 120.335938 159.582031 122.863281 C 166.101562 129.742188 173.136719 136.015625 180.613281 141.800781 C 177.421875 145.398438 174.167969 148.984375 170.839844 152.457031 C 163.390625 160.195312 162.960938 166.433594 169.40625 173.335938 C 169.527344 173.457031 169.613281 173.578125 169.699219 173.765625 C 169.75 173.851562 169.796875 173.921875 169.859375 173.972656 C 171.984375 176 174.046875 178.160156 176.035156 180.234375 C 178.855469 183.183594 181.765625 186.226562 184.933594 189.003906 C 188.863281 192.453125 194.804688 197.425781 201.003906 200.804688 C 201.753906 201.183594 202.5 201.566406 203.25 201.921875 C 205.605469 203.027344 207.667969 203.53125 209.546875 203.53125 C 214.886719 203.515625 218.707031 199.527344 223.089844 194.199219 C 229.238281 186.695312 235.820312 179.300781 242.007812 172.4375 C 244.609375 169.550781 247.101562 166.617188 249.1875 164.136719 C 249.3125 163.988281 249.371094 163.816406 249.371094 163.621094 C 249.371094 163.03125 249.421875 162.539062 249.53125 162.074219 C 249.605469 161.792969 249.507812 161.484375 249.285156 161.300781 C 249.238281 161.25 249.152344 161.203125 249.078125 161.164062 C 247.921875 160.367188 238.59375 154.902344 237.242188 156.230469 C 237.046875 156.425781 236.667969 156.953125 237.355469 157.761719 L 237.710938 158.21875 C 239.503906 160.5625 242.019531 163.804688 243.0625 164.714844 C 243.492188 165.09375 243.859375 165.867188 243.675781 166.410156 L 243.308594 167.613281 C 243.039062 168.421875 242.238281 169.527344 241.160156 169.21875 L 240.546875 169.023438 C 239.882812 168.839844 239.304688 168.667969 238.777344 168.300781 C 237.625 167.527344 236.703125 166.777344 235.90625 165.964844 C 235.757812 165.820312 235.5625 165.734375 235.363281 165.734375 L 233.4375 165.695312 C 232.234375 165.671875 231.03125 165.648438 229.828125 165.609375 C 229.472656 165.574219 229.203125 165.792969 229.078125 166.089844 C 228.957031 166.394531 229.03125 166.738281 229.261719 166.972656 C 231.226562 168.789062 233.144531 171.40625 234.691406 174.328125 C 235.191406 175.285156 234.863281 176.28125 234.332031 176.820312 C 234.027344 177.140625 233.351562 177.59375 232.332031 177.089844 C 230.738281 176.316406 230.464844 176.085938 229.347656 175.089844 L 228.761719 174.5625 C 227.335938 173.320312 225.753906 172.167969 224.820312 173.125 C 223.394531 174.5625 226.585938 179.78125 227.347656 180.640625 C 228.21875 181.609375 227.988281 182.742188 227.398438 183.367188 C 226.871094 183.945312 225.925781 184.261719 224.867188 183.453125 C 222.90625 181.90625 220.964844 180.222656 219.074219 178.601562 C 217.097656 176.882812 215.035156 175.113281 212.9375 173.480469 C 212.261719 172.953125 212.1875 172.351562 212.25 171.921875 C 212.347656 171.210938 212.886719 170.523438 213.550781 170.253906 C 213.957031 170.09375 214.570312 169.996094 215.246094 170.523438 C 216.632812 171.613281 217.980469 172.734375 219.296875 173.851562 C 219.492188 174.023438 219.773438 174.082031 220.03125 174.007812 C 220.289062 173.921875 220.484375 173.726562 220.558594 173.46875 C 220.878906 172.316406 221.503906 171.234375 222.488281 170.179688 C 223.210938 169.417969 223.9375 168.9375 224.695312 168.703125 C 224.929688 168.644531 225.113281 168.472656 225.199219 168.25 C 225.285156 168.03125 225.273438 167.785156 225.164062 167.574219 C 224.109375 165.636719 223.996094 163.621094 226.894531 160.144531 C 228.257812 158.488281 229.828125 158.15625 232.011719 159.089844 C 232.34375 159.226562 232.714844 159.140625 232.933594 158.855469 C 233.15625 158.574219 233.15625 158.179688 232.945312 157.898438 C 231.953125 156.574219 231.339844 155.023438 233.574219 152.839844 C 235.414062 151.070312 237.90625 150.765625 241.207031 151.871094 C 241.550781 151.980469 241.921875 151.855469 242.117188 151.5625 C 242.3125 151.269531 242.289062 150.886719 242.066406 150.617188 C 241.28125 149.683594 240.679688 148.921875 240.449219 148.554688 C 239.417969 146.921875 241 144.464844 242.054688 142.84375 L 242.179688 142.660156 C 245.554688 137.441406 247.910156 138.324219 250.21875 139.773438 C 250.539062 139.96875 250.957031 139.921875 251.203125 139.652344 C 251.472656 139.382812 251.496094 138.964844 251.289062 138.65625 C 250.316406 137.257812 249.371094 135.695312 249.039062 133.769531 C 248.820312 132.429688 250.515625 130.085938 254.210938 126.660156 C 254.578125 126.316406 255.277344 125.761719 256.011719 126.007812 C 256.039062 126.019531 256.234375 126.117188 256.269531 126.117188 C 256.542969 126.21875 256.847656 126.15625 257.058594 125.960938 C 257.277344 125.761719 257.363281 125.457031 257.289062 125.1875 C 256.824219 123.429688 257.289062 121.796875 258.761719 120.039062 C 260.382812 118.101562 261.917969 117.230469 263.464844 117.339844 C 263.722656 117.375 264.019531 117.230469 264.175781 116.996094 C 264.335938 116.75 264.347656 116.453125 264.226562 116.195312 C 263.589844 114.96875 263.292969 113.175781 266.65625 110.21875 C 269.320312 107.824219 270.804688 108.007812 271.679688 108.351562 C 272.023438 108.484375 272.402344 108.363281 272.609375 108.066406 C 272.820312 107.761719 272.796875 107.367188 272.550781 107.097656 C 271.261719 105.660156 270.734375 104.53125 270.84375 103.4375 C 270.964844 102.125 272.007812 100.726562 274.046875 99.164062 C 275.433594 98.085938 277.03125 98.097656 279.082031 99.214844 C 279.386719 99.375 279.78125 99.3125 280.027344 99.054688 C 280.273438 98.796875 280.308594 98.402344 280.113281 98.097656 C 279.15625 96.574219 278.664062 94.621094 282.285156 91.722656 C 283.820312 90.484375 285.316406 90.042969 286.839844 90.359375 C 287.121094 90.421875 287.417969 90.324219 287.601562 90.089844 C 287.785156 89.871094 287.832031 89.5625 287.722656 89.292969 C 286.925781 87.316406 287.21875 85.804688 288.65625 84.40625 C 292.203125 80.941406 294.535156 81.125 296.539062 81.8125 C 296.832031 81.925781 297.175781 81.839844 297.382812 81.59375 C 297.59375 81.359375 297.640625 81.015625 297.507812 80.734375 C 296.21875 78.054688 296.539062 76.277344 298.5625 74.949219 C 300.0625 73.957031 301.421875 73.648438 302.871094 73.957031 C 303.167969 74.003906 303.472656 73.90625 303.65625 73.660156 C 303.84375 73.414062 303.878906 73.082031 303.730469 72.824219 C 302.933594 71.277344 302.726562 69.753906 303.09375 68.074219 C 303.386719 66.84375 304.382812 66.660156 304.800781 66.636719 C 305.09375 66.625 305.363281 66.441406 305.476562 66.171875 C 305.632812 65.839844 306.222656 64.792969 307.539062 64.878906 C 308.519531 64.941406 309.5625 65.382812 310.359375 66.058594 C 310.886719 66.515625 311.515625 66.832031 312.128906 67.140625 C 312.449219 67.300781 312.828125 67.226562 313.074219 66.957031 C 313.308594 66.699219 313.332031 66.292969 313.121094 65.996094 C 312.117188 64.511719 310.703125 63.199219 309.476562 62.070312 C 309.058594 61.675781 308.851562 61.222656 308.863281 60.71875 C 308.886719 60.25 309.082031 59.785156 309.425781 59.402344 C 309.757812 59.035156 310.1875 58.800781 310.605469 58.753906 C 311.074219 58.703125 311.515625 58.863281 311.933594 59.230469 C 313.910156 61.0625 316.621094 63.554688 317.332031 66.070312 C 317.445312 66.476562 317.503906 66.929688 317.578125 67.386719 C 317.703125 68.304688 317.835938 69.253906 318.339844 70.050781 L 318.5 70.332031 C 318.941406 71.03125 319.347656 71.695312 319.566406 72.40625 C 319.765625 73.058594 319.542969 73.894531 319.015625 74.433594 C 318.722656 74.742188 318.230469 75.058594 317.519531 74.863281 C 315.6875 74.335938 314.449219 73.316406 313.023438 72.136719 L 312.25 71.488281 C 311.636719 70.996094 311.023438 70.714844 310.445312 70.429688 C 310.101562 70.269531 309.746094 70.113281 309.378906 69.878906 C 309.144531 69.753906 308.9375 69.597656 308.714844 69.449219 C 308.457031 69.253906 308.1875 69.066406 307.929688 68.921875 C 307.683594 68.785156 307.402344 68.796875 307.15625 68.933594 C 306.921875 69.066406 306.765625 69.3125 306.765625 69.582031 C 306.664062 72.175781 308.691406 74.457031 310.644531 76.667969 C 311.992188 78.179688 313.394531 79.75 313.859375 81.238281 C 314.152344 82.144531 313.835938 82.710938 313.515625 83.03125 C 312.964844 83.582031 312.03125 83.765625 311.195312 83.484375 C 309.855469 83.042969 308.839844 82.058594 307.757812 81.027344 C 306.75 80.070312 305.707031 79.074219 304.34375 78.449219 C 303.449219 78.054688 302.957031 78.328125 302.710938 78.621094 C 301.988281 79.492188 302.6875 81.039062 306.320312 86.503906 C 306.800781 87.21875 307.15625 87.757812 307.292969 87.992188 C 307.820312 88.984375 307.488281 89.894531 307.035156 90.386719 C 306.777344 90.667969 306.0625 91.269531 304.921875 90.765625 L 304.050781 90.375 C 302.710938 89.785156 301.324219 89.167969 300.269531 88.296875 C 298.023438 86.394531 295.382812 86.503906 294.144531 87.71875 C 293.175781 88.652344 292.78125 90.472656 294.585938 92.769531 C 295.003906 93.296875 295.433594 93.800781 295.835938 94.289062 C 297.066406 95.75 298.21875 97.140625 298.96875 98.933594 C 299.300781 99.707031 298.992188 100.257812 298.671875 100.589844 C 298.070312 101.203125 297.066406 101.4375 296.316406 101.140625 C 295.015625 100.601562 294.09375 99.792969 293.015625 98.832031 L 292.558594 98.429688 C 290.855469 96.808594 288.964844 95.457031 286.9375 94.414062 C 286.628906 94.253906 286.25 94.328125 286.015625 94.574219 C 284.703125 95.910156 284.152344 97.140625 284.324219 98.316406 C 284.480469 99.375 285.21875 100.28125 286.53125 101.042969 L 286.679688 101.214844 C 289.097656 103.792969 291.171875 106.015625 290.632812 109.394531 C 290.523438 110.046875 290.128906 110.390625 289.835938 110.5625 C 289.28125 110.878906 288.570312 110.917969 287.933594 110.683594 C 286.273438 110.03125 284.8125 109.0625 283.207031 107.550781 C 281.707031 106.128906 279.007812 104.714844 277.878906 105.820312 C 276.722656 106.949219 278.480469 108.914062 279.054688 109.554688 C 281.707031 112.511719 283.414062 114.710938 283.007812 118.113281 C 282.960938 118.519531 282.738281 118.886719 282.371094 119.15625 C 281.929688 119.488281 281.351562 119.625 280.835938 119.539062 C 279.277344 119.242188 277.570312 117.671875 275.914062 116.160156 C 273.382812 113.851562 270.535156 111.234375 268.082031 113.886719 C 267.34375 114.722656 268.203125 115.953125 271.308594 120.066406 C 272.980469 122.289062 275.261719 125.320312 275.445312 126.363281 C 275.59375 127.089844 275.117188 127.582031 274.808594 127.800781 C 274.195312 128.269531 273.359375 128.378906 272.796875 128.097656 C 272.132812 127.753906 271.113281 126.832031 270.019531 125.875 C 267.246094 123.394531 263.773438 120.3125 261.597656 122.472656 C 260.347656 123.699219 261.832031 126.230469 265.453125 131.066406 C 265.980469 131.769531 266.472656 132.441406 266.597656 132.664062 C 266.988281 133.402344 266.988281 134.164062 266.597656 134.75 C 266.203125 135.351562 265.464844 135.660156 264.621094 135.597656 C 263.074219 135.464844 262.078125 135.046875 260.839844 134.015625 C 259.917969 133.253906 259.304688 132.566406 258.8125 132 C 258.148438 131.25 257.621094 130.664062 256.835938 130.664062 C 256.824219 130.664062 256.8125 130.664062 256.800781 130.664062 C 255.914062 130.675781 255.15625 131.4375 253.792969 133.128906 C 253.152344 133.917969 253.753906 135.316406 256.417969 140.484375 C 257.730469 143.050781 259.230469 145.976562 259.351562 147.007812 C 259.425781 147.609375 259.132812 148.210938 258.566406 148.589844 C 258.101562 148.921875 257.375 149.132812 256.6875 148.773438 C 254.125 147.460938 252.195312 145.976562 250.144531 144.183594 C 249.65625 143.667969 248.144531 142.132812 246.660156 142.695312 C 245.429688 143.152344 244.78125 144.808594 244.609375 147.890625 C 244.597656 148.085938 244.65625 148.285156 244.792969 148.429688 C 245.859375 149.746094 246.941406 151.058594 247.972656 152.175781 C 248.5625 153.28125 249.347656 154.191406 250.097656 155.074219 C 250.929688 156.042969 251.71875 156.953125 252.097656 157.972656 C 252.269531 158.453125 252.835938 158.464844 253.335938 158.539062 C 253.609375 158.585938 253.890625 158.476562 254.0625 158.253906 C 254.183594 158.121094 254.296875 157.972656 254.417969 157.824219 C 259.339844 166.324219 266.054688 173.421875 274.269531 178.859375 C 277.191406 180.800781 279.902344 176.109375 277.007812 174.179688 "/>
<path style=" stroke:none;fill-rule:nonzero;fill:rgb(86.669922%,73.728943%,52.159119%);fill-opacity:1;" d="M 253.117188 166.46875 C 250.515625 164.160156 246.660156 167.992188 249.285156 170.300781 C 255.328125 175.628906 260.480469 181.929688 265.824219 187.945312 C 268.15625 190.5625 271.972656 186.707031 269.664062 184.101562 C 264.3125 178.097656 259.15625 171.800781 253.117188 166.46875 "/>
<path style=" stroke:none;fill-rule:nonzero;fill:rgb(86.669922%,73.728943%,52.159119%);fill-opacity:1;" d="M 246.609375 173.972656 C 244.769531 171.011719 240.078125 173.738281 241.933594 176.710938 C 246.414062 183.894531 251.816406 190.367188 258.101562 196.027344 C 260.691406 198.359375 264.546875 194.527344 261.941406 192.195312 C 255.976562 186.828125 250.859375 180.777344 246.609375 173.972656 "/>
<path style=" stroke:none;fill-rule:nonzero;fill:rgb(86.669922%,73.728943%,52.159119%);fill-opacity:1;" d="M 239.957031 183.574219 C 237.648438 180.949219 233.816406 184.792969 236.113281 187.40625 C 241.183594 193.191406 246.523438 198.714844 252.148438 203.972656 C 254.6875 206.355469 258.53125 202.535156 255.976562 200.140625 C 250.367188 194.871094 245.027344 189.359375 239.957031 183.574219 "/>
</g>
</svg>
