<?xml version="1.0" encoding="UTF-8"?>
<svg xmlns="http://www.w3.org/2000/svg" xmlns:xlink="http://www.w3.org/1999/xlink" width="375pt" height="374.999991pt" viewBox="0 0 375 374.999991" version="1.2">
<g id="surface1">
<path style=" stroke:none;fill-rule:nonzero;fill:rgb(86.669922%,73.728943%,52.159119%);fill-opacity:1;" d="M 233.714844 342.390625 C 226.183594 339.253906 218.027344 336.746094 209.242188 334.867188 L 209.242188 282.191406 L 169.082031 282.191406 L 169.082031 334.867188 C 160.925781 336.121094 152.769531 338.628906 144.613281 342.390625 C 131.433594 348.035156 120.140625 356.8125 112.609375 366.847656 L 106.335938 375 L 271.363281 375 L 265.085938 366.847656 C 257.558594 356.8125 246.890625 348.664062 233.714844 342.390625 Z M 233.714844 342.390625 "/>
<path style=" stroke:none;fill-rule:nonzero;fill:rgb(86.669922%,73.728943%,52.159119%);fill-opacity:1;" d="M 146.496094 252.089844 L 232.457031 252.089844 L 232.457031 274.664062 L 146.496094 274.664062 Z M 146.496094 252.089844 "/>
<path style=" stroke:none;fill-rule:nonzero;fill:rgb(86.669922%,73.728943%,52.159119%);fill-opacity:1;" d="M 304.617188 312.289062 L 285.164062 243.3125 L 289.558594 243.3125 L 289.558594 232.652344 C 289.558594 214.464844 277.636719 198.789062 261.320312 193.144531 L 251.910156 155.519531 C 247.515625 136.707031 230.574219 124.164062 211.75 124.164062 L 116.375 124.164062 C 116.375 120.402344 116.375 117.265625 115.121094 113.503906 L 95.667969 30.101562 C 93.785156 21.320312 88.765625 13.796875 81.863281 8.152344 C 74.960938 2.507812 66.175781 0 57.394531 0 L 35.429688 0 L 36.6875 6.269531 L 90.023438 240.175781 L 90.648438 243.9375 L 273.242188 243.9375 L 295.832031 322.953125 L 339.757812 322.953125 L 339.757812 312.917969 L 304.617188 312.917969 Z M 211.125 134.199219 C 225.554688 134.199219 238.105469 144.230469 241.871094 158.027344 L 250.027344 191.261719 C 249.398438 191.261719 248.144531 191.261719 247.515625 191.261719 L 90.648438 191.261719 L 83.746094 160.535156 C 93.160156 159.28125 101.945312 154.265625 108.21875 146.113281 C 111.355469 142.347656 113.238281 138.585938 114.492188 134.199219 Z M 211.125 134.199219 "/>
</g>
</svg>
