<?xml version="1.0" encoding="UTF-8"?>
<svg xmlns="http://www.w3.org/2000/svg" xmlns:xlink="http://www.w3.org/1999/xlink" width="375pt" height="374.999991pt" viewBox="0 0 375 374.999991" version="1.2">
<g id="surface1">
<path style=" stroke:none;fill-rule:nonzero;fill:rgb(86.669922%,73.728943%,52.159119%);fill-opacity:1;" d="M 269.753906 366.972656 C 269.226562 367.445312 268.699219 367.914062 268.171875 368.375 C 268.574219 368.308594 269.113281 367.800781 269.753906 366.972656 "/>
<path style=" stroke:none;fill-rule:nonzero;fill:rgb(86.669922%,73.728943%,52.159119%);fill-opacity:1;" d="M 68.160156 270.636719 C 58.859375 263.988281 58.191406 247.367188 58.191406 247.367188 L 71.480469 244.707031 C 71.480469 244.707031 67.496094 256.675781 68.160156 270.636719 Z M 240.265625 267.976562 C 235.609375 286.597656 233.617188 311.195312 233.617188 311.195312 C 233.617188 311.195312 247.933594 307.457031 254.277344 293.351562 C 245.492188 313.90625 229.628906 329.148438 229.628906 329.148438 C 229.628906 329.148438 251.558594 323.164062 258.203125 307.871094 C 258.203125 319.839844 238.269531 347.765625 235.609375 347.765625 C 249.25 347.144531 250.164062 344.210938 250.222656 343.820312 C 250.125 344.746094 247.496094 368.503906 243.585938 375.023438 C 259.53125 362.390625 268.171875 339.121094 268.171875 339.121094 C 268.171875 339.121094 264.847656 363.722656 258.867188 367.710938 C 275.417969 357.898438 287.4375 330 289.203125 325.730469 C 287.375 330.191406 275.035156 360.121094 269.753906 366.972656 C 289.75 349.015625 308.160156 322.296875 312.691406 289.253906 C 312.691406 289.253906 320.753906 265.757812 323.988281 242.710938 C 341.265625 119.707031 287.441406 67.84375 287.441406 67.84375 C 287.441406 67.84375 292.757812 8.003906 251.558594 0.0234375 C 258.203125 3.351562 285.445312 8.667969 283.457031 60.53125 C 280.796875 42.578125 266.84375 0.0234375 200.394531 9.335938 C 155.875 16.648438 87.429688 44.574219 65.503906 148.296875 C 65.503906 148.296875 55.535156 173.5625 55.535156 182.871094 C 59.523438 167.578125 62.84375 154.28125 73.476562 143.640625 C 72.148438 153.617188 33.605469 250.691406 68.160156 275.957031 C 67.496094 293.910156 71.480469 317.84375 50.882812 335.796875 C 62.84375 328.484375 78.128906 323.828125 78.128906 323.828125 C 78.792969 340.449219 99.390625 367.046875 116.003906 375.023438 C 100.71875 359.070312 86.101562 335.796875 102.050781 317.179688 C 106.035156 340.449219 135.273438 361.726562 139.925781 362.390625 C 139.925781 362.390625 131.289062 349.09375 136.601562 337.128906 C 148.566406 349.09375 161.191406 346.433594 161.191406 346.433594 C 149.226562 338.457031 151.222656 334.46875 151.222656 334.46875 C 151.222656 334.46875 161.855469 348.429688 185.109375 350.425781 C 160.523438 325.824219 157.867188 311.195312 157.867188 311.195312 C 157.867188 311.195312 163.847656 317.179688 173.8125 317.84375 C 156.535156 300.558594 157.867188 279.945312 157.867188 279.945312 C 157.867188 279.945312 137.265625 256.675781 131.289062 244.039062 C 125.308594 231.40625 124.640625 215.453125 125.308594 210.796875 C 125.972656 206.144531 138.597656 110.398438 230.960938 79.8125 C 248.898438 89.121094 274.152344 113.058594 272.15625 148.960938 C 272.15625 148.960938 276.027344 209.441406 240.265625 267.976562 "/>
</g>
</svg>
