<?xml version="1.0" encoding="UTF-8"?>
<svg xmlns="http://www.w3.org/2000/svg" xmlns:xlink="http://www.w3.org/1999/xlink" width="375pt" height="374.999991pt" viewBox="0 0 375 374.999991" version="1.2">
<defs>
<clipPath id="clip1">
  <path d="M 112.5 152 L 158 152 L 158 158 L 112.5 158 Z M 112.5 152 "/>
</clipPath>
<clipPath id="clip2">
  <path d="M 176 199 L 229 199 L 229 252.46875 L 176 252.46875 Z M 176 199 "/>
</clipPath>
<clipPath id="clip3">
  <path d="M 196 122.15625 L 262.5 122.15625 L 262.5 188 L 196 188 Z M 196 122.15625 "/>
</clipPath>
<clipPath id="clip4">
  <path d="M 4 74 L 371.886719 74 L 371.886719 304 L 4 304 Z M 4 74 "/>
</clipPath>
</defs>
<g id="surface1">
<path style=" stroke:none;fill-rule:nonzero;fill:rgb(100%,100%,100%);fill-opacity:1;" d="M 245.550781 157.394531 L 213.84375 157.394531 C 212.449219 157.394531 211.316406 156.269531 211.316406 154.878906 C 211.316406 153.488281 212.449219 152.363281 213.84375 152.363281 L 245.550781 152.363281 C 246.945312 152.363281 248.074219 153.488281 248.074219 154.878906 C 248.074219 156.269531 246.945312 157.394531 245.550781 157.394531 "/>
<path style=" stroke:none;fill-rule:nonzero;fill:rgb(100%,100%,100%);fill-opacity:1;" d="M 243.628906 149.84375 L 215.765625 149.84375 C 214.371094 149.84375 213.238281 148.71875 213.238281 147.328125 C 213.238281 145.9375 214.371094 144.808594 215.765625 144.808594 L 243.628906 144.808594 C 245.019531 144.808594 246.152344 145.9375 246.152344 147.328125 C 246.152344 148.71875 245.019531 149.84375 243.628906 149.84375 "/>
<path style=" stroke:none;fill-rule:nonzero;fill:rgb(100%,100%,100%);fill-opacity:1;" d="M 243.628906 164.945312 L 215.765625 164.945312 C 214.371094 164.945312 213.238281 163.820312 213.238281 162.429688 C 213.238281 161.039062 214.371094 159.914062 215.765625 159.914062 L 243.628906 159.914062 C 245.019531 159.914062 246.152344 161.039062 246.152344 162.429688 C 246.152344 163.820312 245.019531 164.945312 243.628906 164.945312 "/>
<g clip-path="url(#clip1)" clip-rule="nonzero">
<path style=" stroke:none;fill-rule:nonzero;fill:rgb(100%,100%,100%);fill-opacity:1;" d="M 155.308594 157.394531 L 115.027344 157.394531 C 113.636719 157.394531 112.503906 156.269531 112.503906 154.878906 C 112.503906 153.488281 113.636719 152.363281 115.027344 152.363281 L 155.308594 152.363281 C 156.703125 152.363281 157.835938 153.488281 157.835938 154.878906 C 157.835938 156.269531 156.703125 157.394531 155.308594 157.394531 "/>
</g>
<path style=" stroke:none;fill-rule:nonzero;fill:rgb(100%,100%,100%);fill-opacity:1;" d="M 153.386719 146.398438 L 125.523438 146.398438 C 124.128906 146.398438 123 145.269531 123 143.878906 C 123 142.488281 124.128906 141.363281 125.523438 141.363281 L 153.386719 141.363281 C 154.78125 141.363281 155.910156 142.488281 155.910156 143.878906 C 155.910156 145.269531 154.78125 146.398438 153.386719 146.398438 "/>
<path style=" stroke:none;fill-rule:nonzero;fill:rgb(100%,100%,100%);fill-opacity:1;" d="M 153.386719 168.394531 L 125.523438 168.394531 C 124.128906 168.394531 123 167.269531 123 165.878906 C 123 164.488281 124.128906 163.363281 125.523438 163.363281 L 153.386719 163.363281 C 154.78125 163.363281 155.910156 164.488281 155.910156 165.878906 C 155.910156 167.269531 154.78125 168.394531 153.386719 168.394531 "/>
<path style=" stroke:none;fill-rule:nonzero;fill:rgb(100%,100%,100%);fill-opacity:1;" d="M 173.695312 235.015625 C 173.351562 235.015625 173.007812 234.949219 172.675781 234.800781 C 171.398438 234.238281 170.824219 232.753906 171.386719 231.480469 L 175.082031 223.160156 C 175.644531 221.890625 177.136719 221.316406 178.410156 221.878906 C 179.6875 222.441406 180.261719 223.929688 179.695312 225.199219 L 176.003906 233.519531 C 175.585938 234.457031 174.664062 235.015625 173.695312 235.015625 "/>
<path style=" stroke:none;fill-rule:nonzero;fill:rgb(100%,100%,100%);fill-opacity:1;" d="M 165.527344 231.414062 C 165.183594 231.414062 164.839844 231.34375 164.507812 231.195312 C 163.230469 230.632812 162.65625 229.148438 163.21875 227.875 L 166.910156 219.554688 C 167.476562 218.285156 168.96875 217.710938 170.242188 218.273438 C 171.519531 218.835938 172.09375 220.324219 171.527344 221.59375 L 167.835938 229.914062 C 167.417969 230.851562 166.496094 231.414062 165.527344 231.414062 "/>
<g clip-path="url(#clip2)" clip-rule="nonzero">
<path style=" stroke:none;fill-rule:nonzero;fill:rgb(100%,100%,100%);fill-opacity:1;" d="M 210.003906 252.445312 C 203.265625 252.445312 196.675781 248.550781 194.171875 242.597656 C 191.511719 236.269531 193.898438 230.34375 196.203125 224.613281 C 198.085938 219.921875 199.871094 215.492188 198.746094 211.1875 C 197.789062 207.523438 195.503906 205.25 192.308594 204.78125 C 188.257812 204.191406 183.847656 206.554688 181.335938 210.671875 C 180.613281 211.859375 179.058594 212.238281 177.867188 211.515625 C 176.679688 210.792969 176.296875 209.246094 177.023438 208.058594 C 180.574219 202.238281 187.011719 198.917969 193.042969 199.800781 C 198.292969 200.570312 202.152344 204.257812 203.628906 209.917969 C 205.175781 215.828125 202.996094 221.246094 200.886719 226.488281 C 198.871094 231.496094 196.96875 236.226562 198.828125 240.652344 C 200.882812 245.539062 207.332031 248.472656 212.90625 247.054688 C 218.835938 245.550781 222.511719 239.417969 223.972656 234.179688 C 224.347656 232.839844 225.738281 232.058594 227.082031 232.429688 C 228.425781 232.800781 229.210938 234.191406 228.835938 235.53125 C 226.996094 242.125 222.167969 249.898438 214.152344 251.933594 C 212.785156 252.28125 211.390625 252.445312 210.003906 252.445312 "/>
</g>
<path style=" stroke:none;fill-rule:nonzero;fill:rgb(100%,100%,100%);fill-opacity:1;" d="M 173.414062 209.628906 C 173.304688 209.628906 173.152344 209.683594 173.082031 209.84375 L 169.632812 217.609375 C 169.554688 217.792969 169.636719 218.007812 169.820312 218.089844 L 178.832031 222.066406 C 178.878906 222.085938 178.925781 222.097656 178.976562 222.097656 C 179.085938 222.097656 179.242188 222.039062 179.3125 221.878906 L 182.757812 214.117188 C 182.808594 214 182.789062 213.902344 182.765625 213.835938 C 182.738281 213.773438 182.6875 213.6875 182.570312 213.636719 L 173.5625 209.660156 C 173.511719 209.636719 173.464844 209.628906 173.414062 209.628906 Z M 178.976562 227.128906 C 178.21875 227.128906 177.484375 226.976562 176.789062 226.667969 L 167.777344 222.691406 C 165.046875 221.484375 163.8125 218.292969 165.019531 215.570312 L 168.464844 207.808594 C 169.328125 205.855469 171.273438 204.59375 173.414062 204.59375 C 174.171875 204.59375 174.910156 204.75 175.605469 205.054688 L 184.617188 209.03125 C 185.9375 209.617188 186.953125 210.679688 187.472656 212.023438 C 187.996094 213.367188 187.960938 214.835938 187.375 216.152344 L 183.929688 223.914062 C 183.0625 225.867188 181.117188 227.128906 178.976562 227.128906 "/>
<g clip-path="url(#clip3)" clip-rule="nonzero">
<path style=" stroke:none;fill-rule:nonzero;fill:rgb(100%,100%,100%);fill-opacity:1;" d="M 229.695312 127.203125 C 214.394531 127.203125 201.945312 139.617188 201.945312 154.878906 C 201.945312 170.136719 214.394531 182.550781 229.695312 182.550781 C 244.996094 182.550781 257.449219 170.136719 257.449219 154.878906 C 257.449219 139.617188 244.996094 127.203125 229.695312 127.203125 Z M 229.695312 187.582031 C 211.609375 187.582031 196.894531 172.910156 196.894531 154.878906 C 196.894531 136.84375 211.609375 122.171875 229.695312 122.171875 C 247.78125 122.171875 262.496094 136.84375 262.496094 154.878906 C 262.496094 172.910156 247.78125 187.582031 229.695312 187.582031 "/>
</g>
<path style=" stroke:none;fill-rule:nonzero;fill:rgb(100%,100%,100%);fill-opacity:1;" d="M 227.707031 187.519531 L 218.671875 222.28125 C 218.183594 224.164062 218.699219 226.226562 220.125 228.089844 C 221.683594 230.132812 224.109375 231.660156 226.945312 232.394531 C 228.09375 232.691406 229.261719 232.84375 230.410156 232.84375 C 234.785156 232.84375 238.277344 230.71875 239.097656 227.558594 L 250.761719 182.683594 C 250.992188 181.808594 251 180.886719 250.796875 179.960938 C 244.910156 184.902344 237.558594 187.582031 229.746094 187.582031 C 229.066406 187.582031 228.386719 187.5625 227.707031 187.519531 Z M 230.410156 237.878906 C 228.832031 237.878906 227.242188 237.671875 225.675781 237.265625 C 221.75 236.253906 218.351562 234.078125 216.109375 231.140625 C 213.722656 228.023438 212.898438 224.429688 213.785156 221.019531 L 223.921875 182.03125 L 226.128906 182.316406 C 227.324219 182.472656 228.539062 182.550781 229.746094 182.550781 C 237.382812 182.550781 244.503906 179.519531 249.792969 174.011719 L 251.921875 171.792969 L 253.683594 174.308594 C 255.789062 177.3125 256.484375 180.734375 255.652344 183.945312 L 243.984375 228.820312 C 242.578125 234.238281 237.121094 237.878906 230.410156 237.878906 "/>
<path style=" stroke:none;fill-rule:nonzero;fill:rgb(100%,100%,100%);fill-opacity:1;" d="M 229.695312 141.585938 C 222.34375 141.585938 216.367188 147.546875 216.367188 154.878906 C 216.367188 162.207031 222.34375 168.167969 229.695312 168.167969 C 237.046875 168.167969 243.023438 162.207031 243.023438 154.878906 C 243.023438 147.546875 237.046875 141.585938 229.695312 141.585938 Z M 229.695312 173.203125 C 219.5625 173.203125 211.316406 164.980469 211.316406 154.878906 C 211.316406 144.773438 219.5625 136.550781 229.695312 136.550781 C 239.828125 136.550781 248.074219 144.773438 248.074219 154.878906 C 248.074219 164.980469 239.828125 173.203125 229.695312 173.203125 "/>
<path style=" stroke:none;fill-rule:nonzero;fill:rgb(100%,100%,100%);fill-opacity:1;" d="M 176.367188 161.816406 C 176.808594 161.816406 177.242188 161.886719 177.660156 162.023438 L 200.410156 169.46875 C 198.15625 164.960938 196.96875 159.957031 196.96875 154.878906 C 196.96875 149.796875 198.15625 144.796875 200.410156 140.285156 L 177.664062 147.730469 C 176.632812 148.066406 175.476562 147.980469 174.507812 147.5 L 165.054688 142.773438 L 165.054688 166.980469 L 174.507812 162.253906 C 175.082031 161.96875 175.722656 161.816406 176.367188 161.816406 Z M 202.292969 175.164062 C 201.851562 175.164062 201.410156 175.097656 200.980469 174.953125 L 176.4375 166.921875 L 166.019531 172.128906 C 165.433594 172.421875 164.808594 172.566406 164.160156 172.566406 C 161.871094 172.566406 160.007812 170.710938 160.007812 168.425781 L 160.007812 141.328125 C 160.007812 139.042969 161.871094 137.183594 164.160156 137.183594 C 164.800781 137.183594 165.441406 137.339844 166.019531 137.625 L 176.4375 142.832031 L 200.980469 134.796875 C 201.410156 134.660156 201.851562 134.589844 202.292969 134.589844 C 203.769531 134.589844 205.144531 135.390625 205.886719 136.683594 C 206.632812 137.988281 206.617188 139.539062 205.851562 140.839844 C 203.34375 145.074219 202.019531 149.929688 202.019531 154.878906 C 202.019531 159.824219 203.34375 164.679688 205.851562 168.917969 C 206.617188 170.214844 206.632812 171.765625 205.886719 173.070312 C 205.144531 174.363281 203.769531 175.164062 202.292969 175.164062 "/>
<g clip-path="url(#clip4)" clip-rule="nonzero">
<path style=" stroke:none;fill-rule:evenodd;fill:rgb(86.669922%,73.728943%,52.159119%);fill-opacity:1;" d="M 144.613281 137.339844 C 132.757812 142.890625 117.761719 135.863281 111.125 121.652344 C 104.488281 107.441406 108.722656 91.417969 120.578125 85.867188 C 132.433594 80.320312 147.429688 87.347656 154.0625 101.558594 C 160.699219 115.765625 156.46875 131.792969 144.613281 137.339844 Z M 70.65625 268.523438 C 69.285156 255.496094 55.535156 246.261719 39.953125 247.90625 C 24.371094 249.550781 12.84375 261.449219 14.214844 274.480469 C 15.585938 287.507812 29.339844 296.742188 44.921875 295.097656 C 60.503906 293.453125 72.027344 281.554688 70.65625 268.523438 Z M 106.214844 286.9375 C 102.75 282.511719 97.703125 278.472656 90.953125 278.011719 C 86 277.675781 79.578125 278.925781 77.089844 283.105469 C 71.726562 293.554688 60.011719 301.496094 45.753906 302.996094 C 24.953125 305.195312 6.597656 292.867188 4.769531 275.476562 C 2.9375 258.085938 18.320312 242.203125 39.121094 240.007812 C 50.335938 238.824219 60.839844 241.863281 68.421875 247.636719 C 71.21875 249.765625 73.363281 251.722656 75.210938 253.464844 C 83.472656 262.203125 95.117188 267.71875 108.082031 267.898438 C 119.472656 268.054688 129.953125 264.0625 138.09375 257.320312 C 139.792969 255.910156 141.53125 255.046875 143.675781 254.542969 C 151.113281 252.789062 158.503906 250.945312 165.796875 249.230469 C 185.335938 244.640625 204.199219 240.984375 221.519531 242.511719 C 253.550781 245.335938 328.25 255.8125 370.144531 264.890625 C 371.1875 266.375 371.628906 267.828125 371.859375 269.433594 L 254.964844 268.972656 L 199.710938 268.757812 L 142.945312 270.992188 C 129.242188 272.402344 115.546875 281.328125 109.605469 287.160156 C 109.125 287.628906 108.53125 287.851562 107.859375 287.808594 C 107.191406 287.761719 106.628906 287.46875 106.214844 286.9375 Z M 206.683594 256.65625 C 205.742188 260.558594 201.8125 262.953125 197.917969 262.007812 C 194.019531 261.0625 191.625 257.128906 192.570312 253.230469 C 193.515625 249.328125 197.445312 246.929688 201.339844 247.875 C 205.238281 248.824219 207.628906 252.753906 206.683594 256.65625 Z M 178.71875 158.328125 C 173.144531 157.640625 167.082031 155.402344 163.203125 149.847656 C 160.359375 145.777344 158.117188 139.625 160.40625 135.332031 C 166.578125 125.339844 167.324219 111.199219 161.25 98.191406 C 152.394531 79.222656 132.378906 69.847656 116.554688 77.25 C 100.730469 84.65625 95.082031 106.046875 103.9375 125.015625 C 108.714844 135.242188 116.734375 142.683594 125.59375 146.207031 C 128.851562 147.503906 131.632812 148.332031 134.078125 149.019531 C 145.820312 151.59375 156.546875 158.730469 163.390625 169.757812 C 169.40625 179.445312 171.398438 190.492188 169.832031 200.949219 C 169.503906 203.132812 169.660156 205.070312 170.335938 207.171875 C 172.675781 214.457031 174.910156 221.742188 177.210938 228.882812 C 178.789062 233.785156 180.398438 238.621094 182.089844 243.335938 C 190.34375 241.726562 198.769531 240.46875 207.105469 240.035156 L 184.035156 198.058594 C 178.167969 185.578125 178.734375 169.226562 180.65625 161.121094 C 180.8125 160.464844 180.695312 159.84375 180.3125 159.289062 C 179.929688 158.738281 179.386719 158.410156 178.71875 158.328125 Z M 194.488281 271.246094 C 196.273438 274.351562 198.171875 277.320312 200.21875 280.132812 C 202.050781 282.644531 204.148438 285.464844 206.46875 288.53125 L 234.898438 288.53125 C 231.28125 282.523438 227.699219 276.480469 224.148438 270.375 C 216.035156 270.507812 207.917969 270.71875 199.800781 271.039062 Z M 194.488281 271.246094 "/>
</g>
</g>
</svg>
