<?xml version="1.0" encoding="UTF-8"?>
<svg xmlns="http://www.w3.org/2000/svg" xmlns:xlink="http://www.w3.org/1999/xlink" width="375pt" height="374.999991pt" viewBox="0 0 375 374.999991" version="1.2">
<defs>
<clipPath id="clip1">
  <path d="M 52.734375 0 L 321.984375 0 L 321.984375 375 L 52.734375 375 Z M 52.734375 0 "/>
</clipPath>
</defs>
<g id="surface1">
<g clip-path="url(#clip1)" clip-rule="nonzero">
<path style=" stroke:none;fill-rule:nonzero;fill:rgb(86.669922%,73.728943%,52.159119%);fill-opacity:1;" d="M 321.910156 336.066406 C 321.910156 331.742188 318.410156 328.25 314.101562 328.25 C 312.902344 328.25 311.769531 328.539062 310.753906 329.019531 L 310.753906 329.007812 C 267.789062 349.480469 208.308594 370.238281 168.980469 352.914062 C 158.121094 348.140625 151.375 341.539062 147.328125 336.066406 L 150.152344 336.066406 C 154.460938 336.066406 157.960938 332.566406 157.960938 328.25 L 157.960938 293.710938 C 165.664062 287.910156 171.039062 279.394531 172.867188 269.828125 L 172.890625 269.691406 C 172.949219 269.417969 173.003906 269.140625 173.050781 268.855469 L 216.253906 23.539062 C 204.511719 0.1875 172.835938 0 172.835938 0 L 171.589844 7.101562 C 167.335938 6.351562 163.289062 9.191406 162.535156 13.441406 C 161.789062 17.691406 164.625 21.75 168.867188 22.5 C 164.625 21.75 160.578125 24.585938 159.835938 28.839844 C 159.082031 33.085938 161.917969 37.140625 166.167969 37.890625 C 161.917969 37.140625 157.871094 39.980469 157.113281 44.230469 C 156.371094 48.480469 159.207031 52.53125 163.449219 53.28125 C 159.207031 52.53125 155.148438 55.371094 154.40625 59.621094 C 153.664062 63.871094 156.496094 67.925781 160.738281 68.675781 C 156.496094 67.925781 152.449219 70.761719 151.695312 75.015625 C 150.941406 79.265625 153.777344 83.316406 158.03125 84.066406 C 153.777344 83.316406 149.730469 86.15625 148.976562 90.40625 C 148.230469 94.65625 151.066406 98.714844 155.308594 99.457031 C 151.066406 98.714844 147.019531 101.550781 146.277344 105.796875 C 145.523438 110.050781 148.359375 114.105469 152.609375 114.855469 C 148.359375 114.105469 144.308594 116.945312 143.554688 121.195312 C 142.8125 125.441406 145.648438 129.496094 149.890625 130.246094 C 145.648438 129.496094 141.589844 132.335938 140.847656 136.585938 C 140.105469 140.839844 142.9375 144.890625 147.179688 145.640625 C 142.9375 144.890625 138.890625 147.726562 138.136719 151.980469 C 137.382812 156.230469 140.21875 160.28125 144.46875 161.03125 L 134.535156 217.433594 L 124.601562 161.03125 C 128.855469 160.28125 131.679688 156.230469 130.933594 151.980469 C 130.179688 147.726562 126.132812 144.890625 121.878906 145.640625 C 126.132812 144.890625 128.96875 140.839844 128.214844 136.585938 C 127.46875 132.335938 123.421875 129.496094 119.183594 130.246094 C 123.421875 129.5 126.257812 125.441406 125.515625 121.195312 C 124.761719 116.945312 120.714844 114.105469 116.460938 114.855469 C 120.714844 114.105469 123.550781 110.050781 122.792969 105.796875 C 122.039062 101.550781 117.992188 98.714844 113.75 99.457031 C 117.992188 98.714844 120.828125 94.65625 120.085938 90.40625 C 119.339844 86.15625 115.292969 83.316406 111.042969 84.066406 C 115.292969 83.316406 118.128906 79.265625 117.375 75.015625 C 116.621094 70.761719 112.574219 67.925781 108.320312 68.675781 C 112.574219 67.925781 115.410156 63.875 114.65625 59.621094 C 113.910156 55.371094 109.863281 52.53125 105.625 53.28125 C 109.863281 52.53125 112.699219 48.480469 111.957031 44.230469 C 111.203125 39.980469 107.15625 37.140625 102.902344 37.890625 C 107.15625 37.140625 109.992188 33.085938 109.234375 28.839844 C 108.492188 24.585938 104.433594 21.75 100.191406 22.5 C 104.433594 21.75 107.269531 17.691406 106.527344 13.441406 C 105.78125 9.1875 101.734375 6.351562 97.484375 7.101562 L 96.226562 0 C 96.226562 0 64.5625 0.1875 52.808594 23.539062 L 96.089844 269.234375 C 96.089844 269.234375 96.089844 269.234375 96.089844 269.246094 L 96.203125 269.828125 C 98.113281 279.738281 103.613281 288.070312 111.113281 293.703125 L 111.113281 328.25 C 111.113281 332.566406 114.609375 336.066406 118.921875 336.066406 L 129.152344 336.066406 C 132.96875 343.882812 142.230469 358.019531 162.097656 366.96875 C 173.988281 372.324219 187.867188 375 203.550781 375 C 209.039062 375 214.742188 374.679688 220.652344 374.015625 C 248.34375 370.925781 280.902344 360.535156 317.460938 343.117188 L 317.449219 343.117188 C 320.09375 341.859375 321.910156 339.179688 321.910156 336.066406 Z M 111.464844 266.523438 C 109.226562 253.785156 117.742188 241.609375 130.46875 239.363281 C 131.828125 239.113281 133.222656 239 134.582031 239 C 145.933594 239 155.628906 247.148438 157.59375 258.386719 C 159.835938 271.109375 151.320312 283.300781 138.59375 285.542969 C 137.246094 285.78125 135.851562 285.894531 134.492188 285.894531 C 123.128906 285.894531 113.445312 277.75 111.464844 266.523438 Z M 186.128906 18.144531 C 192.144531 20.148438 196.738281 23.046875 199.824219 26.777344 L 163.027344 235.738281 C 159.082031 231.523438 154.234375 228.230469 148.863281 226.113281 L 185.535156 17.949219 C 185.730469 18.011719 185.925781 18.074219 186.128906 18.144531 Z M 82.945312 18.144531 C 83.136719 18.074219 83.332031 18.011719 83.539062 17.945312 L 120.210938 226.089844 C 114.726562 228.253906 109.921875 231.582031 106.046875 235.738281 L 69.246094 26.777344 C 72.335938 23.042969 76.917969 20.148438 82.945312 18.144531 Z M 126.730469 320.433594 L 126.742188 320.433594 C 131.050781 320.433594 134.550781 316.933594 134.550781 312.617188 C 134.550781 308.304688 131.050781 304.800781 126.742188 304.800781 L 126.730469 304.800781 L 126.730469 300.738281 C 129.253906 301.253906 131.851562 301.527344 134.492188 301.527344 C 136.742188 301.527344 139.03125 301.34375 141.316406 300.933594 C 141.660156 300.875 142.003906 300.796875 142.34375 300.726562 L 142.34375 304.800781 C 138.035156 304.8125 134.546875 308.304688 134.546875 312.617188 C 134.546875 316.933594 138.035156 320.421875 142.34375 320.433594 Z M 126.730469 320.433594 "/>
</g>
<path style=" stroke:none;fill-rule:nonzero;fill:rgb(86.669922%,73.728943%,52.159119%);fill-opacity:1;" d="M 142.34375 262.457031 C 142.34375 258.132812 138.847656 254.628906 134.539062 254.628906 C 130.226562 254.628906 126.730469 258.132812 126.730469 262.457031 C 126.730469 266.761719 130.226562 270.261719 134.539062 270.261719 C 138.847656 270.261719 142.34375 266.761719 142.34375 262.457031 Z M 142.34375 262.457031 "/>
</g>
</svg>
