<?xml version="1.0" encoding="UTF-8"?>
<svg xmlns="http://www.w3.org/2000/svg" xmlns:xlink="http://www.w3.org/1999/xlink" width="375pt" height="374.999991pt" viewBox="0 0 375 374.999991" version="1.2">
<defs>
<clipPath id="clip1">
  <path d="M 57.117188 0 L 317.789062 0 L 317.789062 374.988281 L 57.117188 374.988281 Z M 57.117188 0 "/>
</clipPath>
</defs>
<g id="surface1">
<path style=" stroke:none;fill-rule:nonzero;fill:rgb(86.669922%,73.728943%,52.159119%);fill-opacity:1;" d="M 201.292969 207.828125 C 201.171875 207.582031 201.066406 207.324219 200.984375 207.054688 C 200.550781 206.898438 200.304688 206.839844 200.304688 206.839844 C 200.304688 206.839844 203.265625 211.777344 201.292969 207.828125 "/>
<path style=" stroke:none;fill-rule:nonzero;fill:rgb(86.669922%,73.728943%,52.159119%);fill-opacity:1;" d="M 310.230469 300.773438 C 309.578125 300.726562 309.160156 300.601562 309.160156 300.601562 C 309.160156 300.601562 309.585938 300.765625 310.230469 300.773438 "/>
<g clip-path="url(#clip1)" clip-rule="nonzero">
<path style=" stroke:none;fill-rule:nonzero;fill:rgb(86.669922%,73.728943%,52.159119%);fill-opacity:1;" d="M 301.269531 283 C 301.269531 283 316.890625 282.179688 316.558594 294.183594 C 314.917969 289.578125 311.132812 285.796875 301.269531 283 Z M 306.085938 287.917969 C 305.675781 288.109375 305.125 288.585938 304.394531 289.578125 C 302.089844 293.691406 297.15625 294.679688 294.199219 295.007812 C 289.757812 292.539062 291.894531 283.484375 292.71875 283.332031 C 294.855469 282.929688 303.082031 286.550781 306.085938 287.917969 C 306.957031 287.511719 307.1875 288.429688 307.1875 288.429688 C 307.1875 288.429688 306.773438 288.234375 306.085938 287.917969 Z M 286.46875 337.445312 C 281.371094 331.527344 285.15625 323.960938 285.15625 323.960938 C 290.25 330.867188 288.277344 332.515625 286.46875 337.445312 Z M 267.890625 279.21875 C 267.890625 279.21875 273.3125 280.53125 276.4375 285.304688 C 269.859375 286.453125 267.890625 279.21875 267.890625 279.21875 Z M 275.78125 163.910156 C 279.398438 182.003906 272.492188 189.734375 268.21875 191.707031 C 268.875 190.0625 265.257812 184.796875 261.640625 179.042969 C 266.902344 176.902344 275.78125 163.910156 275.78125 163.910156 Z M 269.859375 139.070312 C 276.4375 150.417969 275.289062 159.464844 275.289062 159.464844 C 275.289062 159.464844 263.941406 175.257812 260.160156 175.09375 C 269.859375 163.25 269.859375 139.070312 269.859375 139.070312 Z M 247.828125 209.636719 C 247.828125 209.636719 255.554688 213.585938 259.339844 222.140625 C 251.113281 219.835938 247.828125 209.636719 247.828125 209.636719 Z M 271.175781 233.652344 C 276.769531 243.523438 272 248.785156 269.367188 249.9375 C 273.3125 247.632812 271.175781 233.652344 271.175781 233.652344 Z M 274.210938 203.769531 C 274.492188 202.992188 273.414062 198.871094 270.027344 195.324219 C 274.300781 192.53125 279.5625 180.519531 279.5625 180.519531 C 283.125 189.59375 275.84375 201.375 274.210938 203.769531 Z M 100.496094 337.285156 C 98.6875 336.953125 91.777344 325.769531 91.777344 325.769531 C 93.585938 325.605469 100 314.582031 100 314.582031 C 110.523438 321.492188 102.796875 333.171875 100.496094 337.285156 Z M 91.449219 347.152344 C 88.652344 346.496094 81.253906 339.421875 81.253906 339.421875 C 81.75 339.75 90.628906 327.578125 90.628906 327.578125 L 98.519531 338.597656 C 98.519531 338.597656 98.191406 342.710938 91.449219 347.152344 Z M 78.625 324.125 C 77.144531 313.597656 81.253906 301.589844 81.253906 301.589844 C 88.324219 302.90625 91.121094 310.472656 91.121094 310.472656 C 91.121094 310.472656 84.378906 320.667969 78.625 324.125 Z M 74.347656 328.894531 C 74.019531 322.808594 67.113281 313.925781 64.316406 307.183594 C 64.316406 297.96875 75.335938 289.910156 78.625 289.578125 C 78.457031 290.730469 81.914062 294.351562 81.914062 294.351562 C 71.386719 298.300781 75.171875 321.164062 74.347656 328.894531 Z M 71.0625 283.164062 L 73.363281 284.480469 C 73.363281 284.480469 61.6875 294.183594 62.015625 299.777344 C 61.6875 295.832031 61.359375 291.882812 71.0625 283.164062 Z M 72.210938 266.058594 C 72.210938 266.058594 75.5 266.222656 74.84375 272.636719 C 73.363281 274.777344 69.578125 277.078125 69.578125 277.078125 L 66.621094 274.445312 Z M 71.71875 231.679688 C 71.71875 231.679688 71.71875 234.308594 71.554688 241.714844 C 62.183594 243.6875 71.71875 231.679688 71.71875 231.679688 Z M 63.660156 248.949219 C 52.480469 242.863281 69.746094 228.226562 69.746094 228.226562 C 63.992188 235.464844 62.507812 245.496094 63.660156 248.949219 Z M 77.308594 281.683594 C 75.828125 281.683594 74.183594 280.039062 74.183594 280.039062 L 76.648438 277.738281 C 76.648438 277.738281 76.320312 280.203125 77.308594 281.683594 Z M 78.953125 224.933594 C 78.953125 224.933594 85.859375 218.191406 90.132812 215.722656 C 88 218.847656 92.4375 225.757812 92.4375 225.757812 C 92.4375 225.757812 88.160156 232.832031 82.40625 235.792969 C 77.636719 234.148438 78.953125 224.933594 78.953125 224.933594 Z M 84.957031 175.175781 C 84.957031 175.175781 89.886719 171.472656 91.121094 172.460938 C 92.355469 173.449219 88.160156 181.097656 88.160156 181.097656 Z M 82.734375 173.449219 C 81.253906 173.695312 78.296875 170.980469 78.296875 170.980469 C 78.296875 170.980469 86.683594 164.8125 90.382812 164.074219 C 88.160156 166.539062 89.148438 170.488281 89.148438 170.488281 C 89.148438 170.488281 84.214844 173.199219 82.734375 173.449219 Z M 73.363281 167.527344 C 73.363281 167.527344 70.402344 163.824219 84.460938 159.136719 C 86.433594 160.125 84.460938 165.058594 73.363281 167.527344 Z M 84.542969 280.039062 L 83.230469 268.691406 C 83.230469 268.691406 84.214844 271.15625 87.667969 274.609375 C 85.367188 276.585938 84.542969 280.039062 84.542969 280.039062 Z M 94.410156 284.480469 C 93.585938 285.46875 89.804688 290.238281 86.023438 290.238281 C 86.023438 290.238281 86.84375 278.886719 89.804688 277.410156 C 92.273438 278.886719 95.234375 283.492188 94.410156 284.480469 Z M 97.042969 291.71875 C 96.054688 292.214844 92.273438 297.96875 88.820312 298.792969 C 88.820312 298.792969 87.667969 295.5 92.273438 291.71875 C 96.878906 287.9375 98.027344 291.226562 97.042969 291.71875 Z M 94.246094 305.699219 C 94.246094 305.699219 93.257812 296.652344 100.65625 296.160156 C 100.988281 298.628906 94.246094 305.699219 94.246094 305.699219 Z M 102.632812 122.289062 C 103.621094 133.476562 101.316406 132.160156 97.371094 132.820312 C 95.726562 125.910156 102.632812 122.289062 102.632812 122.289062 Z M 303.898438 281.519531 C 302.914062 281.519531 286.140625 277.902344 282.851562 273.625 C 279.5625 269.347656 278.578125 266.386719 283.839844 253.886719 C 289.101562 241.386719 278.90625 229.210938 278.90625 229.210938 C 278.90625 229.210938 277.261719 214.078125 275.945312 206.183594 C 275.945312 206.183594 282.523438 195.984375 282.523438 176.902344 C 282.523438 157.820312 291.402344 156.503906 291.402344 161.769531 C 291.402344 161.769531 293.375 158.148438 293.375 153.542969 C 293.375 148.941406 290.085938 133.804688 288.773438 132.820312 C 288.113281 126.238281 286.140625 119.988281 286.140625 119.988281 C 286.140625 119.988281 321.929688 79.375 271.972656 43.753906 C 271.972656 43.753906 263.09375 21.546875 239.414062 18.585938 C 231.273438 11.925781 221.65625 8.964844 216.476562 10.445312 C 212.039062 3.042969 195.757812 -2.136719 174.304688 1.5625 C 152.84375 5.265625 148.40625 17.847656 148.40625 17.847656 C 137.304688 22.289062 132.128906 27.46875 121.769531 43.753906 C 112.148438 52.636719 109.929688 57.816406 109.929688 57.816406 L 113.628906 56.335938 C 113.628906 56.335938 88.472656 73.363281 95.871094 94.085938 C 97.351562 100.746094 84.03125 102.96875 81.8125 100.007812 C 81.074219 103.707031 90.691406 107.410156 93.652344 106.667969 C 89.953125 111.851562 87.832031 114.066406 88.160156 115.050781 C 85.53125 117.027344 81.355469 114.882812 87.503906 110.777344 C 85.53125 108.804688 80.265625 113.410156 83.558594 117.683594 C 86.84375 120.316406 88.160156 119.003906 88.160156 119.003906 C 88.160156 119.003906 79.941406 137.097656 87.832031 152.226562 C 84.875 153.871094 67.441406 162.425781 70.074219 166.703125 C 65.800781 165.71875 60.207031 164.074219 57.574219 159.464844 C 57.25 163.414062 67.113281 168.019531 72.046875 169.335938 C 73.363281 171.3125 68.101562 172.296875 61.851562 168.679688 C 61.851562 168.679688 63.167969 173.941406 76.980469 172.296875 C 80.597656 175.257812 80.597656 175.257812 80.597656 175.257812 C 80.597656 175.257812 68.429688 184.796875 78.953125 191.050781 C 77.308594 187.757812 70.734375 184.796875 82.898438 175.917969 C 86.1875 178.546875 89.148438 184.140625 86.515625 187.429688 C 83.886719 190.71875 70.402344 200.589844 70.734375 226.578125 C 67.769531 227.894531 50.671875 243.6875 64.152344 250.265625 C 65.46875 253.886719 68.757812 256.1875 68.757812 258.492188 C 68.757812 260.792969 57.90625 277.902344 64.152344 281.847656 C 61.195312 288.429688 54.617188 298.300781 61.523438 310.140625 C 61.523438 314.746094 64.8125 325.277344 72.375 332.183594 C 74.019531 333.171875 71.71875 342.054688 59.550781 343.699219 C 62.839844 344.027344 71.386719 341.066406 74.019531 338.4375 C 70.734375 347.316406 73.035156 355.871094 73.035156 355.871094 C 73.035156 355.871094 73.035156 345.34375 75.335938 340.40625 C 75.007812 346.988281 80.265625 356.53125 80.265625 356.53125 C 78.625 357.84375 75.007812 357.1875 75.007812 357.1875 C 77.636719 358.832031 80.925781 358.175781 80.925781 358.175781 C 80.925781 358.175781 87.503906 365.414062 92.109375 366.398438 C 96.710938 367.714844 104.277344 376.269531 104.277344 376.269531 C 104.277344 376.269531 99.34375 367.382812 89.804688 359.492188 C 80.265625 351.59375 81.914062 348.304688 81.914062 348.304688 C 81.914062 348.304688 101.644531 360.804688 105.921875 360.476562 C 96.054688 352.910156 92.765625 349.292969 92.765625 349.292969 C 92.765625 349.292969 102.632812 342.382812 107.894531 328.894531 C 111.511719 312.445312 107.894531 307.839844 107.894531 297.96875 C 107.894531 288.101562 102.960938 283.824219 108.550781 276.585938 C 114.140625 269.347656 110.523438 258.492188 119.074219 238.753906 C 127.628906 219.011719 145.054688 200.917969 149.332031 197.300781 C 154.589844 182.824219 154.265625 173.941406 154.265625 173.941406 C 154.265625 173.941406 157.222656 189.402344 162.484375 193.023438 C 159.199219 186.113281 153.9375 168.347656 157.882812 160.125 C 158.210938 169.007812 163.800781 175.917969 163.800781 175.917969 C 163.800781 175.917969 156.566406 161.769531 159.523438 148.609375 C 165.773438 142.03125 169.390625 128.871094 169.390625 128.871094 C 169.390625 128.871094 194.058594 128.542969 203.59375 111.105469 C 213.132812 93.667969 213.132812 68.335938 213.132812 68.335938 C 215.105469 61.097656 222.339844 46.625 224.96875 45.964844 C 232.863281 45.308594 236.480469 44.320312 246.019531 49.914062 C 255.554688 55.507812 267.066406 62.746094 268.050781 71.628906 C 269.039062 80.511719 270.683594 105.511719 269.039062 108.804688 C 267.394531 112.09375 264.105469 122.621094 264.105469 126.566406 C 264.105469 130.515625 264.765625 144.003906 258.1875 153.542969 C 251.609375 163.085938 240.097656 181.179688 236.808594 187.101562 C 233.523438 193.023438 225.300781 200.917969 204.253906 191.378906 C 202.402344 195.390625 199.679688 202.882812 200.984375 207.054688 C 203.351562 207.910156 211.367188 211.789062 216.089844 226.25 C 221.683594 243.355469 232.863281 270.664062 247.660156 285.796875 C 262.460938 300.929688 272 310.800781 277.261719 342.054688 C 283.839844 344.355469 285.8125 340.738281 285.8125 340.738281 C 285.8125 340.738281 297.980469 348.304688 297.980469 336.132812 C 296.335938 339.089844 291.402344 345.015625 289.429688 337.445312 C 291.730469 329.550781 294.359375 328.566406 296.007812 330.210938 C 296.664062 326.921875 286.140625 319.683594 286.140625 319.683594 C 286.140625 319.683594 286.140625 311.128906 289.101562 306.851562 C 292.058594 302.578125 295.019531 302.90625 293.375 296.652344 C 296.664062 296.324219 304.554688 293.035156 304.886719 291.0625 C 305.214844 289.085938 317.382812 288.429688 315.410156 295.339844 C 314.058594 300.066406 311.628906 300.789062 310.230469 300.773438 C 312.164062 300.90625 316.152344 300.335938 317.382812 293.691406 C 319.027344 284.808594 304.886719 281.519531 303.898438 281.519531 "/>
</g>
</g>
</svg>
