<?xml version="1.0" encoding="UTF-8"?>
<svg xmlns="http://www.w3.org/2000/svg" xmlns:xlink="http://www.w3.org/1999/xlink" width="375pt" height="374.999991pt" viewBox="0 0 375 374.999991" version="1.2">
<defs>
<clipPath id="clip1">
  <path d="M 57.117188 0 L 317.695312 0 L 317.695312 374.988281 L 57.117188 374.988281 Z M 57.117188 0 "/>
</clipPath>
</defs>
<g id="surface1">
<path style=" stroke:none;fill-rule:nonzero;fill:rgb(6.269836%,5.879211%,5.099487%);fill-opacity:1;" d="M 201.242188 207.828125 C 201.117188 207.582031 201.015625 207.324219 200.929688 207.054688 C 200.5 206.898438 200.253906 206.839844 200.253906 206.839844 C 200.253906 206.839844 203.210938 211.777344 201.242188 207.828125 "/>
<path style=" stroke:none;fill-rule:nonzero;fill:rgb(6.269836%,5.879211%,5.099487%);fill-opacity:1;" d="M 310.140625 300.773438 C 309.488281 300.726562 309.070312 300.601562 309.070312 300.601562 C 309.070312 300.601562 309.496094 300.765625 310.140625 300.773438 "/>
<g clip-path="url(#clip1)" clip-rule="nonzero">
<path style=" stroke:none;fill-rule:nonzero;fill:rgb(6.269836%,5.879211%,5.099487%);fill-opacity:1;" d="M 301.179688 283 C 301.179688 283 316.796875 282.179688 316.464844 294.183594 C 314.824219 289.578125 311.042969 285.796875 301.179688 283 Z M 305.996094 287.917969 C 305.585938 288.109375 305.039062 288.585938 304.304688 289.578125 C 302 293.691406 297.070312 294.679688 294.113281 295.007812 C 289.675781 292.539062 291.808594 283.484375 292.632812 283.332031 C 294.769531 282.929688 302.992188 286.550781 305.996094 287.917969 C 306.867188 287.511719 307.097656 288.429688 307.097656 288.429688 C 307.097656 288.429688 306.683594 288.234375 305.996094 287.917969 Z M 286.386719 337.445312 C 281.292969 331.527344 285.074219 323.960938 285.074219 323.960938 C 290.167969 330.867188 288.195312 332.515625 286.386719 337.445312 Z M 267.8125 279.21875 C 267.8125 279.21875 273.234375 280.53125 276.359375 285.304688 C 269.785156 286.453125 267.8125 279.21875 267.8125 279.21875 Z M 275.703125 163.910156 C 279.316406 182.003906 272.414062 189.734375 268.140625 191.707031 C 268.800781 190.0625 265.183594 184.796875 261.566406 179.042969 C 266.824219 176.902344 275.703125 163.910156 275.703125 163.910156 Z M 269.785156 139.070312 C 276.359375 150.417969 275.207031 159.464844 275.207031 159.464844 C 275.207031 159.464844 263.867188 175.257812 260.085938 175.09375 C 269.785156 163.25 269.785156 139.070312 269.785156 139.070312 Z M 247.757812 209.636719 C 247.757812 209.636719 255.484375 213.585938 259.265625 222.140625 C 251.042969 219.835938 247.757812 209.636719 247.757812 209.636719 Z M 271.101562 233.652344 C 276.6875 243.523438 271.921875 248.785156 269.292969 249.9375 C 273.234375 247.632812 271.101562 233.652344 271.101562 233.652344 Z M 274.132812 203.769531 C 274.414062 202.992188 273.339844 198.871094 269.949219 195.324219 C 274.222656 192.53125 279.484375 180.519531 279.484375 180.519531 C 283.042969 189.59375 275.765625 201.375 274.132812 203.769531 Z M 100.480469 337.285156 C 98.671875 336.953125 91.765625 325.769531 91.765625 325.769531 C 93.574219 325.605469 99.984375 314.582031 99.984375 314.582031 C 110.503906 321.492188 102.78125 333.171875 100.480469 337.285156 Z M 91.4375 347.152344 C 88.640625 346.496094 81.246094 339.421875 81.246094 339.421875 C 81.738281 339.75 90.617188 327.578125 90.617188 327.578125 L 98.503906 338.597656 C 98.503906 338.597656 98.179688 342.710938 91.4375 347.152344 Z M 78.617188 324.125 C 77.136719 313.597656 81.246094 301.589844 81.246094 301.589844 C 88.316406 302.90625 91.109375 310.472656 91.109375 310.472656 C 91.109375 310.472656 84.371094 320.667969 78.617188 324.125 Z M 74.34375 328.894531 C 74.015625 322.808594 67.109375 313.925781 64.316406 307.183594 C 64.316406 297.96875 75.328125 289.910156 78.617188 289.578125 C 78.449219 290.730469 81.90625 294.351562 81.90625 294.351562 C 71.382812 298.300781 75.164062 321.164062 74.34375 328.894531 Z M 71.054688 283.164062 L 73.355469 284.480469 C 73.355469 284.480469 61.6875 294.183594 62.015625 299.777344 C 61.6875 295.832031 61.355469 291.882812 71.054688 283.164062 Z M 72.207031 266.058594 C 72.207031 266.058594 75.492188 266.222656 74.835938 272.636719 C 73.355469 274.777344 69.574219 277.078125 69.574219 277.078125 L 66.617188 274.445312 Z M 71.714844 231.679688 C 71.714844 231.679688 71.714844 234.308594 71.546875 241.714844 C 62.179688 243.6875 71.714844 231.679688 71.714844 231.679688 Z M 63.65625 248.949219 C 52.480469 242.863281 69.738281 228.226562 69.738281 228.226562 C 63.988281 235.464844 62.507812 245.496094 63.65625 248.949219 Z M 77.300781 281.683594 C 75.824219 281.683594 74.179688 280.039062 74.179688 280.039062 L 76.644531 277.738281 C 76.644531 277.738281 76.316406 280.203125 77.300781 281.683594 Z M 78.945312 224.933594 C 78.945312 224.933594 85.847656 218.191406 90.121094 215.722656 C 87.988281 218.847656 92.421875 225.757812 92.421875 225.757812 C 92.421875 225.757812 88.148438 232.832031 82.398438 235.792969 C 77.628906 234.148438 78.945312 224.933594 78.945312 224.933594 Z M 84.945312 175.175781 C 84.945312 175.175781 89.875 171.472656 91.109375 172.460938 C 92.339844 173.449219 88.148438 181.097656 88.148438 181.097656 Z M 82.726562 173.449219 C 81.246094 173.695312 78.289062 170.980469 78.289062 170.980469 C 78.289062 170.980469 86.671875 164.8125 90.371094 164.074219 C 88.148438 166.539062 89.136719 170.488281 89.136719 170.488281 C 89.136719 170.488281 84.207031 173.199219 82.726562 173.449219 Z M 73.355469 167.527344 C 73.355469 167.527344 70.398438 163.824219 84.449219 159.136719 C 86.425781 160.125 84.449219 165.058594 73.355469 167.527344 Z M 84.53125 280.039062 L 83.21875 268.691406 C 83.21875 268.691406 84.207031 271.15625 87.65625 274.609375 C 85.355469 276.585938 84.53125 280.039062 84.53125 280.039062 Z M 94.398438 284.480469 C 93.574219 285.46875 89.792969 290.238281 86.015625 290.238281 C 86.015625 290.238281 86.835938 278.886719 89.792969 277.410156 C 92.261719 278.886719 95.21875 283.492188 94.398438 284.480469 Z M 97.027344 291.71875 C 96.039062 292.214844 92.261719 297.96875 88.808594 298.792969 C 88.808594 298.792969 87.65625 295.5 92.261719 291.71875 C 96.863281 287.9375 98.011719 291.226562 97.027344 291.71875 Z M 94.230469 305.699219 C 94.230469 305.699219 93.246094 296.652344 100.640625 296.160156 C 100.972656 298.628906 94.230469 305.699219 94.230469 305.699219 Z M 102.613281 122.289062 C 103.601562 133.476562 101.300781 132.160156 97.355469 132.820312 C 95.710938 125.910156 102.613281 122.289062 102.613281 122.289062 Z M 303.808594 281.519531 C 302.824219 281.519531 286.058594 277.902344 282.769531 273.625 C 279.484375 269.347656 278.496094 266.386719 283.757812 253.886719 C 289.015625 241.386719 278.824219 229.210938 278.824219 229.210938 C 278.824219 229.210938 277.183594 214.078125 275.867188 206.183594 C 275.867188 206.183594 282.441406 195.984375 282.441406 176.902344 C 282.441406 157.820312 291.316406 156.503906 291.316406 161.769531 C 291.316406 161.769531 293.289062 158.148438 293.289062 153.542969 C 293.289062 148.941406 290 133.804688 288.6875 132.820312 C 288.03125 126.238281 286.058594 119.988281 286.058594 119.988281 C 286.058594 119.988281 321.835938 79.375 271.894531 43.753906 C 271.894531 43.753906 263.019531 21.546875 239.351562 18.585938 C 231.210938 11.925781 221.597656 8.964844 216.417969 10.445312 C 211.984375 3.042969 195.710938 -2.136719 174.261719 1.5625 C 152.8125 5.265625 148.371094 17.847656 148.371094 17.847656 C 137.277344 22.289062 132.101562 27.46875 121.746094 43.753906 C 112.128906 52.636719 109.910156 57.816406 109.910156 57.816406 L 113.609375 56.335938 C 113.609375 56.335938 88.460938 73.363281 95.855469 94.085938 C 97.335938 100.746094 84.023438 102.96875 81.804688 100.007812 C 81.0625 103.707031 90.679688 107.410156 93.640625 106.667969 C 89.941406 111.851562 87.820312 114.066406 88.148438 115.050781 C 85.519531 117.027344 81.347656 114.882812 87.492188 110.777344 C 85.519531 108.804688 80.257812 113.410156 83.546875 117.683594 C 86.835938 120.316406 88.148438 119.003906 88.148438 119.003906 C 88.148438 119.003906 79.929688 137.097656 87.820312 152.226562 C 84.863281 153.871094 67.4375 162.425781 70.070312 166.703125 C 65.796875 165.71875 60.207031 164.074219 57.574219 159.464844 C 57.25 163.414062 67.109375 168.019531 72.042969 169.335938 C 73.355469 171.3125 68.097656 172.296875 61.851562 168.679688 C 61.851562 168.679688 63.164062 173.941406 76.972656 172.296875 C 80.589844 175.257812 80.589844 175.257812 80.589844 175.257812 C 80.589844 175.257812 68.425781 184.796875 78.945312 191.050781 C 77.300781 187.757812 70.726562 184.796875 82.890625 175.917969 C 86.179688 178.546875 89.136719 184.140625 86.507812 187.429688 C 83.878906 190.71875 70.398438 200.589844 70.726562 226.578125 C 67.765625 227.894531 50.671875 243.6875 64.152344 250.265625 C 65.464844 253.886719 68.753906 256.1875 68.753906 258.492188 C 68.753906 260.792969 57.90625 277.902344 64.152344 281.847656 C 61.191406 288.429688 54.617188 298.300781 61.523438 310.140625 C 61.523438 314.746094 64.808594 325.277344 72.371094 332.183594 C 74.015625 333.171875 71.714844 342.054688 59.550781 343.699219 C 62.835938 344.027344 71.382812 341.066406 74.015625 338.4375 C 70.726562 347.316406 73.027344 355.871094 73.027344 355.871094 C 73.027344 355.871094 73.027344 345.34375 75.328125 340.40625 C 75 346.988281 80.257812 356.53125 80.257812 356.53125 C 78.617188 357.84375 75 357.1875 75 357.1875 C 77.628906 358.832031 80.917969 358.175781 80.917969 358.175781 C 80.917969 358.175781 87.492188 365.414062 92.097656 366.398438 C 96.699219 367.714844 104.261719 376.269531 104.261719 376.269531 C 104.261719 376.269531 99.328125 367.382812 89.792969 359.492188 C 80.257812 351.59375 81.90625 348.304688 81.90625 348.304688 C 81.90625 348.304688 101.628906 360.804688 105.902344 360.476562 C 96.039062 352.910156 92.753906 349.292969 92.753906 349.292969 C 92.753906 349.292969 102.613281 342.382812 107.875 328.894531 C 111.492188 312.445312 107.875 307.839844 107.875 297.96875 C 107.875 288.101562 102.945312 283.824219 108.53125 276.585938 C 114.121094 269.347656 110.503906 258.492188 119.054688 238.753906 C 127.601562 219.011719 145.023438 200.917969 149.296875 197.300781 C 154.554688 182.824219 154.230469 173.941406 154.230469 173.941406 C 154.230469 173.941406 157.1875 189.402344 162.445312 193.023438 C 159.160156 186.113281 153.902344 168.347656 157.84375 160.125 C 158.175781 169.007812 163.761719 175.917969 163.761719 175.917969 C 163.761719 175.917969 156.53125 161.769531 159.488281 148.609375 C 165.734375 142.03125 169.351562 128.871094 169.351562 128.871094 C 169.351562 128.871094 194.007812 128.542969 203.542969 111.105469 C 213.074219 93.667969 213.074219 68.335938 213.074219 68.335938 C 215.050781 61.097656 222.28125 46.625 224.910156 45.964844 C 232.800781 45.308594 236.417969 44.320312 245.949219 49.914062 C 255.484375 55.507812 266.992188 62.746094 267.976562 71.628906 C 268.964844 80.511719 270.605469 105.511719 268.964844 108.804688 C 267.316406 112.09375 264.03125 122.621094 264.03125 126.566406 C 264.03125 130.515625 264.691406 144.003906 258.113281 153.542969 C 251.539062 163.085938 240.035156 181.179688 236.746094 187.101562 C 233.457031 193.023438 225.242188 200.917969 204.199219 191.378906 C 202.347656 195.390625 199.628906 202.882812 200.929688 207.054688 C 203.296875 207.910156 211.308594 211.789062 216.035156 226.25 C 221.625 243.355469 232.800781 270.664062 247.59375 285.796875 C 262.386719 300.929688 271.921875 310.800781 277.183594 342.054688 C 283.757812 344.355469 285.730469 340.738281 285.730469 340.738281 C 285.730469 340.738281 297.890625 348.304688 297.890625 336.132812 C 296.25 339.089844 291.316406 345.015625 289.347656 337.445312 C 291.648438 329.550781 294.277344 328.566406 295.921875 330.210938 C 296.578125 326.921875 286.058594 319.683594 286.058594 319.683594 C 286.058594 319.683594 286.058594 311.128906 289.015625 306.851562 C 291.976562 302.578125 294.933594 302.90625 293.289062 296.652344 C 296.578125 296.324219 304.46875 293.035156 304.796875 291.0625 C 305.125 289.085938 317.289062 288.429688 315.316406 295.339844 C 313.964844 300.066406 311.539062 300.789062 310.140625 300.773438 C 312.074219 300.90625 316.058594 300.335938 317.289062 293.691406 C 318.933594 284.808594 304.796875 281.519531 303.808594 281.519531 "/>
</g>
</g>
</svg>
