<?xml version="1.0" encoding="UTF-8"?>
<svg xmlns="http://www.w3.org/2000/svg" xmlns:xlink="http://www.w3.org/1999/xlink" width="375pt" height="374.999991pt" viewBox="0 0 375 374.999991" version="1.2">
<defs>
<clipPath id="clip1">
  <path d="M 155 18 L 206 18 L 206 184 L 155 184 Z M 155 18 "/>
</clipPath>
<clipPath id="clip2">
  <path d="M 179.203125 374.992188 L 46.128906 64.019531 L 195.753906 -0.0078125 L 328.828125 310.964844 Z M 179.203125 374.992188 "/>
</clipPath>
<clipPath id="clip3">
  <path d="M 179.203125 374.992188 L 46.128906 64.019531 L 195.753906 -0.0078125 L 328.828125 310.964844 Z M 179.203125 374.992188 "/>
</clipPath>
<clipPath id="clip4">
  <path d="M 160 197 L 219 197 L 219 362 L 160 362 Z M 160 197 "/>
</clipPath>
<clipPath id="clip5">
  <path d="M 179.203125 374.992188 L 46.128906 64.019531 L 195.753906 -0.0078125 L 328.828125 310.964844 Z M 179.203125 374.992188 "/>
</clipPath>
<clipPath id="clip6">
  <path d="M 179.203125 374.992188 L 46.128906 64.019531 L 195.753906 -0.0078125 L 328.828125 310.964844 Z M 179.203125 374.992188 "/>
</clipPath>
<clipPath id="clip7">
  <path d="M 92 45 L 319 45 L 319 318 L 92 318 Z M 92 45 "/>
</clipPath>
<clipPath id="clip8">
  <path d="M 179.203125 374.992188 L 46.128906 64.019531 L 195.753906 -0.0078125 L 328.828125 310.964844 Z M 179.203125 374.992188 "/>
</clipPath>
<clipPath id="clip9">
  <path d="M 179.203125 374.992188 L 46.128906 64.019531 L 195.753906 -0.0078125 L 328.828125 310.964844 Z M 179.203125 374.992188 "/>
</clipPath>
</defs>
<g id="surface1">
<g clip-path="url(#clip1)" clip-rule="nonzero">
<g clip-path="url(#clip2)" clip-rule="nonzero">
<g clip-path="url(#clip3)" clip-rule="nonzero">
<path style=" stroke:none;fill-rule:nonzero;fill:rgb(86.669922%,73.728943%,52.159119%);fill-opacity:1;" d="M 170.605469 139.78125 L 205.144531 183.359375 L 171.871094 43.339844 C 165.328125 16.507812 155.621094 18.546875 155.621094 18.546875 Z M 170.605469 139.78125 "/>
</g>
</g>
</g>
<g clip-path="url(#clip4)" clip-rule="nonzero">
<g clip-path="url(#clip5)" clip-rule="nonzero">
<g clip-path="url(#clip6)" clip-rule="nonzero">
<path style=" stroke:none;fill-rule:nonzero;fill:rgb(86.669922%,73.728943%,52.159119%);fill-opacity:1;" d="M 218.785156 329.632812 C 219.121094 320.441406 217.992188 307.417969 212.890625 299.515625 C 210.90625 296.441406 208.191406 294.441406 206.285156 292.035156 C 205.910156 291.429688 205.511719 290.867188 205.121094 290.289062 C 204.25 288.6875 203.792969 286.820312 204.105469 284.355469 C 205.277344 275.152344 210.230469 270.179688 204.671875 260.863281 C 204.296875 260.238281 196.871094 251.550781 196.382812 252.265625 L 201.15625 245.285156 L 197.417969 225.015625 C 195.109375 217.289062 195.683594 210.996094 197.367188 206.042969 C 189.628906 202.710938 182.714844 204.109375 182.246094 204.210938 L 181.800781 204.3125 L 181.558594 203.925781 L 177.785156 197.910156 L 179.964844 215.550781 C 190.425781 249.878906 181.5625 262.136719 181.5625 262.136719 C 174.417969 271.8125 169.648438 280.683594 166.5 288.609375 C 162.898438 295.070312 160.886719 303.648438 160.960938 313.113281 C 160.550781 323.617188 163.113281 329.53125 163.113281 329.53125 L 163.121094 329.457031 C 168.238281 349.257812 181.519531 362.957031 194.660156 360.902344 C 210.609375 359.320312 218.253906 344.207031 218.785156 329.632812 Z M 190.089844 271.972656 C 188.804688 268.972656 190.195312 265.496094 193.195312 264.214844 C 196.195312 262.929688 199.671875 264.320312 200.957031 267.324219 C 202.242188 270.324219 200.847656 273.800781 197.847656 275.085938 C 194.847656 276.367188 191.371094 274.976562 190.089844 271.972656 Z M 197.285156 352.921875 C 190.421875 354.980469 181.535156 349.304688 175.675781 339.117188 C 173.550781 335.417969 171.894531 331.308594 170.757812 326.894531 C 168.480469 318.054688 168.59375 308.804688 171.078125 301.507812 C 172.3125 297.882812 175.238281 291.550781 181.019531 289.8125 C 187.878906 287.753906 196.769531 293.433594 202.625 303.617188 C 204.75 307.316406 206.410156 311.425781 207.546875 315.839844 C 212.339844 334.433594 205.980469 350.304688 197.285156 352.921875 Z M 197.285156 352.921875 "/>
</g>
</g>
</g>
<g clip-path="url(#clip7)" clip-rule="nonzero">
<g clip-path="url(#clip8)" clip-rule="nonzero">
<g clip-path="url(#clip9)" clip-rule="nonzero">
<path style=" stroke:none;fill-rule:nonzero;fill:rgb(86.669922%,73.728943%,52.159119%);fill-opacity:1;" d="M 94.367188 45.695312 C 93.277344 46.988281 90.800781 51.511719 95.609375 62.746094 C 96.992188 65.984375 98.890625 69.558594 101.25 73.367188 L 177.410156 194.867188 L 182.425781 202.867188 C 184.167969 202.589844 190.644531 201.890625 197.761719 204.886719 C 202.96875 207.082031 208.515625 211.242188 212.808594 219.054688 L 224.441406 235.660156 L 232.5 237.109375 L 232.386719 237.75 L 232.824219 238.144531 C 232.375 239.199219 233.132812 248.691406 233.328125 249.523438 C 233.601562 250.582031 233.9375 251.566406 234.316406 252.453125 C 236.371094 257.257812 239.785156 259.101562 243.734375 261.238281 C 245.824219 262.371094 247.984375 263.539062 250.226562 265.25 C 252.140625 266.707031 253.371094 268.46875 253.972656 270.457031 L 254.085938 271.019531 C 254.183594 271.527344 254.28125 272.035156 254.40625 272.550781 C 254.578125 273.886719 254.589844 275.164062 254.605469 276.515625 C 254.625 278.449219 254.644531 280.453125 255.105469 282.519531 C 255.429688 283.960938 255.933594 285.492188 256.605469 287.0625 C 260.507812 296.175781 268.839844 304.398438 272.242188 307.511719 C 282.683594 317.066406 298.589844 322.234375 310.59375 312.234375 C 319.195312 305.855469 320.578125 291.351562 314.0625 276.121094 C 312.964844 273.558594 311.65625 271.003906 310.171875 268.53125 L 310.246094 268.464844 L 310.1875 268.488281 C 309.902344 267.820312 307.382812 262.246094 300.160156 255.671875 C 293.667969 249.179688 286.1875 244.535156 279.078125 242.570312 C 270.394531 238.917969 260.542969 236.292969 249.726562 234.753906 C 249.09375 234.65625 234.25 232.054688 217.167969 200.601562 L 205.847656 186.320312 L 170.90625 142.246094 Z M 285.511719 253.675781 C 292.558594 257.078125 299.335938 263.578125 304.097656 271.507812 C 305.335938 273.5625 306.425781 275.691406 307.339844 277.828125 C 308.171875 279.777344 308.875 281.765625 309.429688 283.746094 C 312.660156 295.363281 310.339844 305.980469 303.792969 309.574219 C 295.566406 314.078125 279.378906 307.410156 269.300781 290.636719 C 266.941406 286.707031 265.136719 282.550781 263.972656 278.394531 C 260.742188 266.78125 263.0625 256.160156 269.609375 252.570312 C 275.15625 249.53125 281.953125 251.957031 285.511719 253.675781 Z M 251.40625 246.746094 C 252.109375 248.464844 252.105469 250.246094 251.425781 251.863281 C 250.75 253.480469 249.484375 254.734375 247.867188 255.398438 C 244.570312 256.746094 240.746094 255.183594 239.347656 251.910156 L 239.308594 251.816406 C 237.933594 248.46875 239.542969 244.628906 242.890625 243.257812 C 246.183594 241.90625 250.003906 243.472656 251.40625 246.746094 Z M 191.601562 189.75 C 188.597656 191.035156 185.117188 189.644531 183.832031 186.636719 C 183.074219 184.871094 183.265625 182.949219 184.148438 181.394531 L 192.410156 189.304688 C 192.148438 189.464844 191.890625 189.625 191.601562 189.75 Z M 194.710938 181.984375 C 195.507812 183.847656 195.269531 185.890625 194.261719 187.484375 L 185.878906 179.460938 C 186.207031 179.234375 186.5625 179.035156 186.945312 178.871094 C 189.945312 177.585938 193.425781 178.980469 194.710938 181.984375 Z M 194.710938 181.984375 "/>
</g>
</g>
</g>
</g>
</svg>
