<?xml version="1.0" encoding="UTF-8"?>
<svg xmlns="http://www.w3.org/2000/svg" xmlns:xlink="http://www.w3.org/1999/xlink" width="375pt" height="374.999991pt" viewBox="0 0 375 374.999991" version="1.2">
<defs>
<clipPath id="clip1">
  <path d="M 155 18 L 206 18 L 206 184 L 155 184 Z M 155 18 "/>
</clipPath>
<clipPath id="clip2">
  <path d="M 179.203125 374.992188 L 46.128906 64.019531 L 195.753906 -0.0078125 L 328.828125 310.964844 Z M 179.203125 374.992188 "/>
</clipPath>
<clipPath id="clip3">
  <path d="M 179.203125 374.992188 L 46.128906 64.019531 L 195.753906 -0.0078125 L 328.828125 310.964844 Z M 179.203125 374.992188 "/>
</clipPath>
<clipPath id="clip4">
  <path d="M 179.203125 374.992188 L 46.121094 64 L 195.726562 -0.0195312 L 328.808594 310.972656 Z M 179.203125 374.992188 "/>
</clipPath>
<clipPath id="clip5">
  <path d="M 160 197 L 219 197 L 219 362 L 160 362 Z M 160 197 "/>
</clipPath>
<clipPath id="clip6">
  <path d="M 179.203125 374.992188 L 46.128906 64.019531 L 195.753906 -0.0078125 L 328.828125 310.964844 Z M 179.203125 374.992188 "/>
</clipPath>
<clipPath id="clip7">
  <path d="M 179.203125 374.992188 L 46.128906 64.019531 L 195.753906 -0.0078125 L 328.828125 310.964844 Z M 179.203125 374.992188 "/>
</clipPath>
<clipPath id="clip8">
  <path d="M 179.203125 374.992188 L 46.121094 64 L 195.726562 -0.0195312 L 328.808594 310.972656 Z M 179.203125 374.992188 "/>
</clipPath>
<clipPath id="clip9">
  <path d="M 92 45 L 319 45 L 319 318 L 92 318 Z M 92 45 "/>
</clipPath>
<clipPath id="clip10">
  <path d="M 179.203125 374.992188 L 46.128906 64.019531 L 195.753906 -0.0078125 L 328.828125 310.964844 Z M 179.203125 374.992188 "/>
</clipPath>
<clipPath id="clip11">
  <path d="M 179.203125 374.992188 L 46.128906 64.019531 L 195.753906 -0.0078125 L 328.828125 310.964844 Z M 179.203125 374.992188 "/>
</clipPath>
<clipPath id="clip12">
  <path d="M 179.203125 374.992188 L 46.121094 64 L 195.726562 -0.0195312 L 328.808594 310.972656 Z M 179.203125 374.992188 "/>
</clipPath>
</defs>
<g id="surface1">
<g clip-path="url(#clip1)" clip-rule="nonzero">
<g clip-path="url(#clip2)" clip-rule="nonzero">
<g clip-path="url(#clip3)" clip-rule="nonzero">
<g clip-path="url(#clip4)" clip-rule="nonzero">
<path style=" stroke:none;fill-rule:nonzero;fill:rgb(0%,0%,0%);fill-opacity:1;" d="M 170.585938 139.773438 L 205.125 183.351562 L 171.847656 43.328125 C 165.304688 16.496094 155.59375 18.53125 155.59375 18.53125 Z M 170.585938 139.773438 "/>
</g>
</g>
</g>
</g>
<g clip-path="url(#clip5)" clip-rule="nonzero">
<g clip-path="url(#clip6)" clip-rule="nonzero">
<g clip-path="url(#clip7)" clip-rule="nonzero">
<g clip-path="url(#clip8)" clip-rule="nonzero">
<path style=" stroke:none;fill-rule:nonzero;fill:rgb(0%,0%,0%);fill-opacity:1;" d="M 218.777344 329.632812 C 219.113281 320.441406 217.984375 307.417969 212.882812 299.515625 C 210.898438 296.441406 208.183594 294.4375 206.277344 292.03125 C 205.898438 291.425781 205.5 290.867188 205.109375 290.289062 C 204.238281 288.683594 203.785156 286.816406 204.097656 284.355469 C 205.265625 275.152344 210.21875 270.175781 204.660156 260.859375 C 204.289062 260.234375 196.863281 251.550781 196.371094 252.265625 L 201.144531 245.28125 L 197.40625 225.011719 C 195.097656 217.285156 195.671875 210.988281 197.351562 206.039062 C 189.613281 202.703125 182.699219 204.105469 182.234375 204.207031 L 181.789062 204.304688 L 181.546875 203.917969 L 177.773438 197.902344 L 179.953125 215.542969 C 190.414062 249.875 181.554688 262.132812 181.554688 262.132812 C 174.410156 271.808594 169.640625 280.679688 166.492188 288.601562 C 162.894531 295.066406 160.882812 303.640625 160.957031 313.109375 C 160.546875 323.613281 163.113281 329.53125 163.113281 329.53125 L 163.117188 329.453125 C 168.238281 349.253906 181.515625 362.957031 194.65625 360.902344 C 210.605469 359.324219 218.246094 344.207031 218.777344 329.632812 Z M 190.078125 271.972656 C 188.792969 268.96875 190.1875 265.492188 193.183594 264.210938 C 196.1875 262.925781 199.660156 264.320312 200.945312 267.320312 C 202.230469 270.324219 200.839844 273.796875 197.835938 275.082031 C 194.839844 276.367188 191.363281 274.972656 190.078125 271.972656 Z M 197.28125 352.921875 C 190.417969 354.980469 181.53125 349.304688 175.675781 339.113281 C 173.546875 335.414062 171.890625 331.304688 170.757812 326.890625 C 168.476562 318.050781 168.589844 308.800781 171.074219 301.503906 C 172.304688 297.878906 175.234375 291.546875 181.011719 289.808594 C 187.871094 287.75 196.757812 293.429688 202.617188 303.617188 C 204.742188 307.316406 206.402344 311.425781 207.539062 315.839844 C 212.332031 334.433594 205.976562 350.308594 197.28125 352.921875 Z M 197.28125 352.921875 "/>
</g>
</g>
</g>
</g>
<g clip-path="url(#clip9)" clip-rule="nonzero">
<g clip-path="url(#clip10)" clip-rule="nonzero">
<g clip-path="url(#clip11)" clip-rule="nonzero">
<g clip-path="url(#clip12)" clip-rule="nonzero">
<path style=" stroke:none;fill-rule:nonzero;fill:rgb(0%,0%,0%);fill-opacity:1;" d="M 94.351562 45.675781 C 93.261719 46.96875 90.785156 51.492188 95.59375 62.726562 C 96.980469 65.964844 98.878906 69.539062 101.234375 73.351562 L 177.398438 194.859375 L 182.410156 202.859375 C 184.15625 202.582031 190.628906 201.886719 197.746094 204.882812 C 202.953125 207.078125 208.496094 211.238281 212.792969 219.050781 L 224.425781 235.660156 L 232.484375 237.109375 L 232.371094 237.75 L 232.808594 238.144531 C 232.359375 239.195312 233.117188 248.691406 233.3125 249.523438 C 233.585938 250.578125 233.921875 251.566406 234.300781 252.449219 C 236.355469 257.257812 239.769531 259.105469 243.71875 261.242188 C 245.808594 262.371094 247.96875 263.539062 250.210938 265.25 C 252.125 266.710938 253.355469 268.46875 253.957031 270.460938 L 254.070312 271.023438 C 254.167969 271.53125 254.265625 272.035156 254.390625 272.550781 C 254.5625 273.886719 254.574219 275.167969 254.589844 276.519531 C 254.609375 278.453125 254.628906 280.453125 255.089844 282.519531 C 255.414062 283.964844 255.917969 285.496094 256.59375 287.066406 C 260.492188 296.179688 268.824219 304.402344 272.226562 307.515625 C 282.664062 317.070312 298.574219 322.242188 310.574219 312.242188 C 319.175781 305.863281 320.558594 291.359375 314.039062 276.128906 C 312.941406 273.566406 311.632812 271.011719 310.148438 268.535156 L 310.222656 268.472656 L 310.164062 268.496094 L 310.164062 268.492188 C 309.878906 267.824219 307.359375 262.25 300.140625 255.679688 C 293.644531 249.183594 286.167969 244.539062 279.054688 242.574219 C 270.371094 238.917969 260.523438 236.296875 249.707031 234.753906 C 249.078125 234.65625 234.234375 232.054688 217.148438 200.597656 L 205.832031 186.316406 L 170.890625 142.238281 Z M 285.488281 253.679688 C 292.539062 257.082031 299.3125 263.582031 304.078125 271.515625 C 305.3125 273.570312 306.402344 275.695312 307.320312 277.835938 C 308.152344 279.78125 308.855469 281.773438 309.40625 283.753906 C 312.636719 295.367188 310.320312 305.988281 303.773438 309.578125 C 295.550781 314.085938 279.363281 307.414062 269.285156 290.640625 C 266.925781 286.710938 265.117188 282.554688 263.957031 278.398438 C 260.726562 266.785156 263.042969 256.164062 269.589844 252.574219 C 275.132812 249.535156 281.933594 251.960938 285.488281 253.679688 Z M 251.386719 246.746094 C 252.089844 248.464844 252.085938 250.246094 251.410156 251.863281 C 250.734375 253.480469 249.46875 254.734375 247.847656 255.398438 C 244.554688 256.75 240.730469 255.183594 239.328125 251.910156 L 239.289062 251.816406 C 237.917969 248.46875 239.527344 244.628906 242.875 243.257812 C 246.167969 241.90625 249.988281 243.472656 251.386719 246.746094 Z M 191.585938 189.742188 C 188.582031 191.03125 185.101562 189.636719 183.816406 186.632812 C 183.058594 184.863281 183.25 182.941406 184.132812 181.390625 L 192.390625 189.296875 C 192.132812 189.457031 191.875 189.621094 191.585938 189.742188 Z M 194.691406 181.976562 C 195.492188 183.839844 195.253906 185.886719 194.246094 187.476562 L 185.863281 179.457031 C 186.191406 179.226562 186.546875 179.027344 186.929688 178.863281 C 189.929688 177.578125 193.40625 178.972656 194.691406 181.976562 Z M 194.691406 181.976562 "/>
</g>
</g>
</g>
</g>
</g>
</svg>
